<svg width="50" height="50" viewBox="0 0 50 50" fill="none" xmlns="http://www.w3.org/2000/svg">
<circle cx="25" cy="25" r="23.5" fill="#FFE4E0" stroke="white" stroke-width="3"/>
<path d="M32 34V32C32 31.2044 31.6839 30.4413 31.1213 29.8787C30.5587 29.3161 29.7956 29 29 29H21C20.2044 29 19.4413 29.3161 18.8787 29.8787C18.3161 30.4413 18 31.2044 18 32V34C18 34.2652 17.8947 34.5196 17.7072 34.7071C17.5196 34.8946 17.2652 35 17 35C16.7348 35 16.4804 34.8946 16.2928 34.7071C16.1053 34.5196 16 34.2652 16 34V32C16 30.6739 16.5268 29.4022 17.4645 28.4645C18.4022 27.5268 19.6739 27 21 27H29C30.3261 27 31.5978 27.5268 32.5355 28.4645C33.4732 29.4022 34 30.6739 34 32V34C34 34.2652 33.8947 34.5196 33.7072 34.7071C33.5196 34.8946 33.2652 35 33 35C32.7348 35 32.4804 34.8946 32.2928 34.7071C32.1053 34.5196 32 34.2652 32 34ZM20 20C20 19.0111 20.2932 18.0444 20.8427 17.2221C21.3921 16.3999 22.1729 15.7591 23.0865 15.3806C24.0002 15.0022 25.0056 14.9031 25.9755 15.0961C26.9454 15.289 27.8363 15.7652 28.5355 16.4645C29.2348 17.1637 29.711 18.0546 29.9039 19.0245C30.0969 19.9944 29.9978 20.9998 29.6194 21.9134C29.2409 22.8271 28.6001 23.6079 27.7778 24.1574C26.9556 24.7068 25.9889 25 25 25C23.6739 25 22.4022 24.4732 21.4645 23.5355C20.5268 22.5978 20 21.3261 20 20ZM22 20C22 20.5933 22.176 21.1734 22.5056 21.6667C22.8353 22.1601 23.3038 22.5446 23.8519 22.7716C24.4001 22.9987 25.0034 23.0581 25.5853 22.9424C26.1673 22.8266 26.7018 22.5409 27.1213 22.1213C27.5409 21.7018 27.8266 21.1672 27.9424 20.5853C28.0581 20.0033 27.9987 19.4001 27.7716 18.852C27.5445 18.3038 27.1601 17.8352 26.6667 17.5056C26.1734 17.1759 25.5933 17 25 17C24.2044 17 23.4413 17.3161 22.8787 17.8787C22.3161 18.4413 22 19.2044 22 20Z" fill="#EE6653"/>
</svg>
