<svg width="68" height="68" viewBox="0 0 68 68" fill="none" xmlns="http://www.w3.org/2000/svg">
<path d="M28.8801 20.39C28.8801 18.14 30.7101 16.31 32.9601 16.31C35.2101 16.31 37.0401 18.14 37.0401 20.39C37.0401 22.64 35.2101 24.47 32.9601 24.47C30.7101 24.47 28.8801 22.63 28.8801 20.39ZM7.71007 20.39C7.71007 18.14 9.54007 16.31 11.7901 16.31C14.0401 16.31 15.8701 18.14 15.8701 20.39C15.8701 22.64 14.0401 24.47 11.7901 24.47C9.54007 24.47 7.71007 22.63 7.71007 20.39ZM17.6501 64.43C17.6501 65.57 16.4701 66.94 15.0001 66.94C13.6201 66.94 12.4901 65.81 12.4901 64.43V52.2C12.4901 51.81 12.1701 51.5 11.7901 51.5C11.4101 51.5 11.0901 51.82 11.0901 52.2V64.43C11.0901 65.82 9.96007 66.95 8.58007 66.95C7.19007 66.95 6.07007 65.82 6.07007 64.44V47.71L6.50007 47.57C7.57007 47.23 8.33007 46.47 8.65007 45.43L8.78007 44.99H17.6601V64.43H17.6501ZM38.8201 64.43C38.8201 65.57 37.6401 66.94 36.1701 66.94C34.7901 66.94 33.6601 65.81 33.6601 64.43V52.2C33.6601 51.81 33.3401 51.5 32.9601 51.5C32.5801 51.5 32.2601 51.82 32.2601 52.2V64.43C32.2601 65.82 31.1301 66.95 29.7501 66.95C28.3601 66.95 27.2401 65.82 27.2401 64.44V47.71L27.6501 47.56C28.6201 47.21 29.3701 46.41 29.6701 45.43L29.8001 44.99H38.8301V64.43H38.8201ZM67.4501 12.94C67.4501 15.44 65.4101 17.48 62.9101 17.48H56.2401C56.0201 17.48 55.8201 17.58 55.6901 17.75L51.5201 23.05L51.4201 22.93L47.3601 17.76C47.2301 17.59 47.0201 17.49 46.8101 17.49C44.3101 17.49 42.2701 15.45 42.2701 12.95V7.51998C42.2701 5.01998 44.3101 2.97998 46.8101 2.97998H62.9201C65.4201 2.97998 67.4601 5.01998 67.4601 7.51998V12.94H67.4501Z" fill="#EE6653"/>
<path d="M67.34 6.5501C67.34 3.2701 64.67 0.600098 61.39 0.600098H45.2901C42.0101 0.600098 39.34 3.2701 39.34 6.5501V11.9801C39.34 15.0401 41.63 17.5801 44.68 17.9001L44.94 17.9301L44.9701 17.9701L48.5201 22.4901L47.8601 22.8401C47.4101 23.0801 47.21 23.2701 46.35 24.0901L46.26 24.1701C45.81 24.6001 45.19 25.2001 44.3 26.0201L43.9901 26.3101L43.6101 26.1301C42.0601 25.3901 41.0201 24.8801 40.3801 24.5501L40.2901 24.5301L39.7901 24.3001C38.7501 23.7901 37.6 23.5201 36.48 23.5201H35.2901L35.96 22.5401C37.13 20.8401 37.25 18.7301 36.28 16.8901C35.32 15.0501 33.51 13.9601 31.44 13.9601C29.37 13.9601 27.56 15.0501 26.6 16.8901C25.63 18.7301 25.75 20.8401 26.92 22.5401L27.59 23.5201H14.11L14.78 22.5401C15.95 20.8401 16.07 18.7301 15.1 16.8901C14.14 15.0601 12.33 13.9601 10.26 13.9601C7.24005 13.9601 4.78005 16.4201 4.78005 19.4401C4.78005 20.6201 5.15005 21.7401 5.85005 22.6901L6.42005 23.4601L5.49005 23.6701C2.63005 24.3201 0.550049 26.9201 0.550049 29.8501V43.4601C0.550049 44.8601 1.42005 46.1301 2.72005 46.6101L3.13005 46.7601V63.4801C3.13005 65.6401 4.89005 67.4001 7.05005 67.4001C8.10005 67.4001 9.08005 66.9901 9.83005 66.2501L10.27 65.8101L10.71 66.2501C11.45 66.9901 12.44 67.4001 13.49 67.4001C15.81 67.4001 17.55 65.3301 17.55 63.4801V32.0101C17.55 31.3501 18.09 30.8201 18.74 30.8201H21.74V43.4601C21.74 44.8601 22.61 46.1201 23.91 46.6101L24.32 46.7601V63.4801C24.32 65.6401 26.0801 67.4001 28.2401 67.4001C29.2901 67.4001 30.27 66.9901 31.01 66.2501L31.4501 65.8101L31.89 66.2501C32.63 66.9901 33.62 67.4001 34.67 67.4001C36.99 67.4001 38.73 65.3301 38.73 63.4801V31.2301L43.19 33.3801C44.45 33.9901 45.99 33.7501 47 32.7701L51.75 28.2201C52.42 27.5701 52.7901 26.6701 52.7701 25.7601C52.7501 24.8301 52.3401 23.9601 51.6101 23.3101L51.17 22.9201L51.2401 22.8301L55.09 17.9401H61.42C64.7 17.9401 67.37 15.2701 67.37 11.9901V6.5501H67.34ZM27.3601 19.4301C27.3601 17.1801 29.19 15.3501 31.44 15.3501C33.69 15.3501 35.5201 17.1801 35.5201 19.4301C35.5201 21.6801 33.69 23.5101 31.44 23.5101C29.19 23.5101 27.3601 21.6801 27.3601 19.4301ZM6.19005 19.4301C6.19005 17.1801 8.02005 15.3501 10.27 15.3501C12.52 15.3501 14.35 17.1801 14.35 19.4301C14.35 21.6801 12.52 23.5101 10.27 23.5101C8.02005 23.5101 6.19005 21.6801 6.19005 19.4301ZM16.13 63.4801C16.13 64.6201 14.95 65.9901 13.48 65.9901C12.1 65.9901 10.97 64.8601 10.97 63.4801V51.2501C10.97 50.8601 10.65 50.5501 10.27 50.5501C9.89005 50.5501 9.57005 50.8701 9.57005 51.2501V63.4801C9.57005 64.8701 8.44005 66.0001 7.06005 66.0001C5.67005 66.0001 4.55005 64.8701 4.55005 63.4901V46.7601L4.98005 46.6201C6.05005 46.2801 6.81005 45.5201 7.13005 44.4801L7.26005 44.0401H16.14V63.4801H16.13ZM21.8 28.8801L21.72 29.4101H18.73C17.3 29.4101 16.13 30.5801 16.13 32.0101V42.6301H7.25005V34.5201C7.25005 34.1301 6.93005 33.8201 6.55005 33.8201C6.17005 33.8201 5.85005 34.1401 5.85005 34.5201V43.5301C5.85005 44.0401 5.67005 44.4901 5.32005 44.8301C4.95005 45.2001 4.42005 45.4001 3.84005 45.4001H3.80005C2.78005 45.3901 1.95005 44.5201 1.95005 43.4601V29.8401C1.95005 27.1201 4.16005 24.9101 6.88005 24.9101H23.88L23.08 25.9201C22.41 26.7801 21.96 27.8001 21.8 28.8801ZM37.3 63.4801C37.3 64.6201 36.1201 65.9901 34.6501 65.9901C33.2701 65.9901 32.14 64.8601 32.14 63.4801V51.2501C32.14 50.8601 31.82 50.5501 31.44 50.5501C31.06 50.5501 30.7401 50.8701 30.7401 51.2501V63.4801C30.7401 64.8701 29.61 66.0001 28.23 66.0001C26.84 66.0001 25.72 64.8701 25.72 63.4901V46.7501L26.1301 46.6001C27.1001 46.2501 27.8501 45.4501 28.1501 44.4701L28.28 44.0301H37.3101V63.4801H37.3ZM50.75 27.2001L46 31.7501C45.41 32.3201 44.52 32.4601 43.78 32.1101L38.3301 29.4801C38.1601 29.3901 37.9601 29.3801 37.7901 29.4401C37.6001 29.5001 37.46 29.6301 37.37 29.8001L37.3301 29.8901C37.2901 30.0901 37.3 31.3201 37.3 33.9401C37.3 35.7301 37.31 38.3001 37.3 42.0001V42.6201H28.28V34.5101C28.28 34.1201 27.9601 33.8101 27.5801 33.8101C27.1901 33.8101 26.8801 34.1301 26.8801 34.5101V43.5201C26.8801 44.5601 26.05 45.3801 25 45.3901C23.97 45.3801 23.14 44.5101 23.14 43.4501V29.8401C23.14 27.1201 25.35 24.9101 28.07 24.9101H36.48C37.39 24.9101 38.2501 25.1101 39.1101 25.5101L43.8301 27.7901C44.0901 27.9201 44.41 27.8701 44.62 27.6701C46.1 26.2701 47.0101 25.4201 47.5801 24.9201L47.64 24.8401L48.05 24.4401C48.47 24.0301 48.98 23.8301 49.51 23.8601C49.98 23.8901 50.44 24.1101 50.78 24.4501C51.42 25.1401 51.64 26.3301 50.75 27.2001ZM65.93 11.9801C65.93 14.4801 63.89 16.5201 61.39 16.5201H54.7201C54.5001 16.5201 54.3 16.6201 54.17 16.7901L50 22.0901L49.9001 21.9701L45.84 16.8001C45.71 16.6301 45.5001 16.5301 45.2901 16.5301C42.7901 16.5301 40.75 14.4901 40.75 11.9901V6.5601C40.75 4.0601 42.7901 2.0201 45.2901 2.0201H61.4001C63.9001 2.0201 65.94 4.0601 65.94 6.5601V11.9801H65.93Z" fill="#434343"/>
<path d="M61.4001 5.94019H45.3801C44.9901 5.94019 44.6801 6.26019 44.6801 6.64019C44.6801 7.02019 45.0001 7.34019 45.3801 7.34019H61.4001C61.7901 7.34019 62.1001 7.02019 62.1001 6.64019C62.1001 6.26019 61.7801 5.94019 61.4001 5.94019Z" fill="#434343"/>
<path d="M61.4001 11.28H45.3801C44.9901 11.28 44.6801 11.6 44.6801 11.98C44.6801 12.36 45.0001 12.68 45.3801 12.68H61.4001C61.7901 12.68 62.1001 12.36 62.1001 11.98C62.1001 11.6 61.7801 11.28 61.4001 11.28Z" fill="#434343"/>
</svg>
