<svg width="67" height="68" viewBox="0 0 67 68" fill="none" xmlns="http://www.w3.org/2000/svg">
<path d="M66.8 6.82999C66.8 3.54999 64.13 0.880005 60.85 0.880005H44.74C41.46 0.880005 38.79 3.54999 38.79 6.82999V12.26C38.79 15.32 41.08 17.86 44.13 18.18L44.39 18.21L44.42 18.25L47.97 22.77L47.31 23.12C46.86 23.36 46.66 23.55 45.8 24.37L45.71 24.45C45.26 24.88 44.64 25.48 43.75 26.3L43.44 26.59L43.06 26.41C41.51 25.67 40.47 25.16 39.83 24.83L39.74 24.81L39.24 24.58C38.2 24.07 37.05 23.8 35.93 23.8H34.74L35.41 22.82C36.58 21.12 36.7 19.01 35.73 17.17C34.77 15.33 32.96 14.24 30.89 14.24C28.82 14.24 27.01 15.33 26.05 17.17C25.08 19.01 25.2 21.12 26.37 22.82L27.04 23.8H13.57L14.24 22.82C15.41 21.12 15.53 19.01 14.56 17.17C13.6 15.34 11.79 14.24 9.72001 14.24C6.70001 14.24 4.24001 16.7 4.24001 19.72C4.24001 20.9 4.61001 22.02 5.31001 22.97L5.88001 23.74L4.95001 23.95C2.09001 24.6 0.0100098 27.2 0.0100098 30.13V43.74C0.0100098 45.14 0.88001 46.41 2.18001 46.89L2.59001 47.04V63.76C2.59001 65.92 4.35001 67.68 6.51001 67.68C7.56001 67.68 8.54001 67.27 9.29001 66.53L9.73001 66.09L10.17 66.53C10.91 67.27 11.9 67.68 12.95 67.68C15.27 67.68 17.01 65.61 17.01 63.76V32.29C17.01 31.63 17.55 31.1 18.2 31.1H21.2V43.74C21.2 45.14 22.07 46.4 23.37 46.89L23.78 47.04V63.76C23.78 65.92 25.54 67.68 27.7 67.68C28.75 67.68 29.73 67.27 30.47 66.53L30.91 66.09L31.35 66.53C32.09 67.27 33.08 67.68 34.13 67.68C36.45 67.68 38.19 65.61 38.19 63.76V31.51L42.65 33.66C43.91 34.27 45.45 34.03 46.46 33.05L51.21 28.5C51.88 27.85 52.25 26.95 52.23 26.04C52.21 25.11 51.8 24.24 51.07 23.59L50.63 23.2L50.7 23.11L54.55 18.22H60.88C64.16 18.22 66.83 15.55 66.83 12.27V6.84L66.8 6.82999ZM26.82 19.71C26.82 17.46 28.65 15.63 30.9 15.63C33.15 15.63 34.98 17.46 34.98 19.71C34.98 21.96 33.15 23.79 30.9 23.79C28.65 23.79 26.82 21.96 26.82 19.71ZM5.64001 19.71C5.64001 17.46 7.47001 15.63 9.72001 15.63C11.97 15.63 13.8 17.46 13.8 19.71C13.8 21.96 11.97 23.79 9.72001 23.79C7.47001 23.79 5.64001 21.96 5.64001 19.71ZM15.58 63.76C15.58 64.9 14.4 66.27 12.93 66.27C11.55 66.27 10.42 65.14 10.42 63.76V51.53C10.42 51.14 10.1 50.83 9.72001 50.83C9.34001 50.83 9.02001 51.15 9.02001 51.53V63.76C9.02001 65.15 7.89001 66.28 6.51001 66.28C5.13001 66.28 4.00001 65.15 4.00001 63.77V47.05L4.43001 46.91C5.50001 46.57 6.26001 45.81 6.58001 44.77L6.71001 44.33H15.58V63.78V63.76ZM21.25 29.16L21.17 29.69H18.18C16.75 29.69 15.58 30.86 15.58 32.29V42.91H6.71001V34.8C6.71001 34.41 6.39001 34.1 6.01001 34.1C5.63001 34.1 5.31001 34.42 5.31001 34.8V43.81C5.31001 44.32 5.13001 44.77 4.78001 45.11C4.41001 45.48 3.88001 45.68 3.30001 45.68H3.27001C2.25001 45.67 1.42001 44.8 1.42001 43.74V30.13C1.42001 27.41 3.63001 25.2 6.35001 25.2H23.34L22.54 26.21C21.86 27.07 21.42 28.09 21.25 29.16ZM36.76 63.76C36.76 64.9 35.58 66.27 34.11 66.27C32.73 66.27 31.6 65.14 31.6 63.76V51.53C31.6 51.14 31.28 50.83 30.9 50.83C30.52 50.83 30.2 51.15 30.2 51.53V63.76C30.2 65.15 29.07 66.28 27.69 66.28C26.31 66.28 25.18 65.15 25.18 63.77V47.05L25.59 46.9C26.56 46.55 27.31 45.75 27.61 44.77L27.74 44.33H36.77V63.78L36.76 63.76ZM50.2 27.48L45.45 32.03C44.86 32.6 43.97 32.74 43.23 32.39L37.78 29.76C37.61 29.67 37.41 29.66 37.24 29.72C37.05 29.78 36.91 29.91 36.82 30.08L36.78 30.17C36.74 30.37 36.75 31.6 36.75 34.22C36.75 36.01 36.75 38.58 36.75 42.28V42.9H27.73V34.79C27.73 34.4 27.41 34.09 27.03 34.09C26.65 34.09 26.33 34.41 26.33 34.79V43.8C26.33 44.84 25.5 45.66 24.45 45.67C23.42 45.66 22.59 44.79 22.59 43.73V30.12C22.59 27.4 24.8 25.19 27.52 25.19H35.93C36.84 25.19 37.7 25.39 38.56 25.8L43.28 28.08C43.54 28.21 43.86 28.16 44.07 27.96C45.55 26.56 46.46 25.71 47.03 25.21L47.09 25.13L47.5 24.73C47.92 24.32 48.43 24.12 48.96 24.15C49.43 24.18 49.89 24.4 50.23 24.74C50.89 25.42 51.11 26.62 50.23 27.48H50.2ZM65.39 12.26C65.39 14.76 63.35 16.8 60.85 16.8H54.18C53.96 16.8 53.76 16.9 53.63 17.07L49.46 22.37L49.36 22.25L45.3 17.08C45.17 16.91 44.96 16.81 44.75 16.81C42.25 16.81 40.21 14.77 40.21 12.27V6.84C40.21 4.34 42.25 2.29999 44.75 2.29999H60.86C63.36 2.29999 65.4 4.34 65.4 6.84V12.27L65.39 12.26Z" fill="#434343"/>
<path d="M60.8501 6.21997H44.8401C44.4501 6.21997 44.1401 6.53998 44.1401 6.91998C44.1401 7.29998 44.4601 7.61996 44.8401 7.61996H60.8501C61.2401 7.61996 61.5501 7.29998 61.5501 6.91998C61.5501 6.53998 61.2301 6.21997 60.8501 6.21997Z" fill="#434343"/>
<path d="M60.8501 11.5601H44.8401C44.4501 11.5601 44.1401 11.8801 44.1401 12.2601C44.1401 12.6401 44.4601 12.9601 44.8401 12.9601H60.8501C61.2401 12.9601 61.5501 12.6401 61.5501 12.2601C61.5501 11.8801 61.2301 11.5601 60.8501 11.5601Z" fill="#434343"/>
</svg>
