<svg width="77" height="59" viewBox="0 0 77 59" fill="none" xmlns="http://www.w3.org/2000/svg">
<path d="M23.3999 40.7402C25.6599 40.7402 27.49 42.5702 27.49 44.8302V54.3102C27.49 56.5702 25.6599 58.4002 23.3999 58.4002H7.29996C5.03996 58.4002 3.20996 56.5602 3.20996 54.3102V44.8302C3.20996 42.5702 5.03996 40.7402 7.29996 40.7402H18.88C19.06 40.7402 19.24 40.6802 19.39 40.5702L22.27 38.4402V39.8802C22.27 40.3502 22.65 40.7302 23.1199 40.7302H23.3999V40.7402Z" fill="#EE6653"/>
<path d="M55.64 21.3602C53.38 21.3602 51.55 19.5302 51.55 17.2702V7.7902C51.55 5.5302 53.38 3.7002 55.64 3.7002H71.7401C74.0001 3.7002 75.83 5.5402 75.83 7.7902V17.2702C75.83 19.5302 74.0001 21.3602 71.7401 21.3602H60.16C59.98 21.3602 59.8 21.4202 59.65 21.5302L56.7701 23.6602V22.2202C56.7701 21.7502 56.39 21.3702 55.92 21.3702H55.64V21.3602Z" fill="#EE6653"/>
<path d="M6.93007 43.8101C6.46007 43.8101 6.08008 44.1901 6.08008 44.6601C6.08008 45.1301 6.46007 45.5101 6.93007 45.5101H20.7001C21.1701 45.5101 21.5501 45.1301 21.5501 44.6601C21.5501 44.1901 21.1701 43.8101 20.7001 43.8101H6.93007Z" fill="#434343"/>
<path d="M14.6001 49.24H6.93007C6.46007 49.24 6.08008 49.62 6.08008 50.1C6.08008 50.58 6.46007 50.95 6.93007 50.95H14.6001C15.0701 50.95 15.4501 50.57 15.4501 50.1C15.4501 49.63 15.0701 49.24 14.6001 49.24Z" fill="#434343"/>
<path d="M61.7 22.09H59.99C60.54 23.81 60.89 25.59 61.02 27.42L61.08 28.27H50.83L50.8 27.52C50.7 25.12 50.41 22.83 49.97 20.64C48.36 19.39 47.34 17.46 47.34 15.29V12.57C46.57 11.01 45.7 9.63996 44.7299 8.50996L42.83 6.28996L45.59 7.25996C46.1899 7.46996 46.77 7.71996 47.34 7.97996V6.18996C44.4 4.97996 41.23 4.32996 38 4.32996C34.35 4.32996 30.8 5.13996 27.45 6.72996C27.27 6.80996 27.0999 6.89996 26.9299 6.97996C26.5299 7.17996 26.13 7.38996 25.74 7.61996C25.35 7.83996 24.98 8.06996 24.61 8.30996L24.4299 8.42996C24.2899 8.51996 24.1499 8.60996 24.0099 8.70996C17.2399 13.32 13.2 20.96 13.2 29.13C13.2 31.54 13.55 33.86 14.2 36.06H15.9299C15.3799 34.32 15.0299 32.51 14.8999 30.65L14.84 29.81H25.1799L25.2 30.58C25.25 32.91 25.47 35.16 25.84 37.33C26.66 37.92 27.35 38.66 27.84 39.54C27.18 36.73 26.78 33.68 26.71 30.61L26.69 29.81H37.24V40.37L36.4799 40.39C33.92 40.47 31.4099 40.76 29.0099 41.24L28.5 41.34C28.61 41.83 28.69 42.33 28.69 42.86V46.65C29.17 47.64 29.69 48.55 30.25 49.37L31.7299 51.53L29.31 50.55C29.1 50.46 28.9 50.36 28.69 50.27V52.06C31.54 53.21 34.65 53.85 37.91 53.85C41.56 53.85 45.11 53.04 48.46 51.45C48.64 51.37 48.81 51.28 48.9799 51.2C49.38 51 49.78 50.79 50.17 50.56C50.56 50.34 50.93 50.11 51.3 49.87L51.47 49.76C51.61 49.67 51.7599 49.58 51.8999 49.48C53.4699 48.41 54.93 47.14 56.2299 45.72L56.33 45.62C60.44 41.07 62.71 35.19 62.71 29.07C62.71 26.7 62.36 24.37 61.7 22.13V22.09ZM37.25 6.37996V16.18L36.44 16.15C34.27 16.08 32.14 15.85 30.11 15.49L29.13 15.31L29.52 14.4C29.72 13.93 29.9299 13.46 30.1499 13.01C31.7999 9.72996 33.95 7.49996 36.2 6.72996L37.24 6.36996L37.25 6.37996ZM22.36 11.97C23.18 11.22 24.0299 10.54 24.8699 9.94996C25.0499 9.81996 25.24 9.70996 25.42 9.58996C25.79 9.34996 26.12 9.14996 26.46 8.94996C26.86 8.71996 27.26 8.50996 27.67 8.29996L28.0399 8.11996C28.8199 7.75996 29.65 7.41996 30.53 7.12996L33.28 6.19996L31.38 8.38996C30.03 9.93996 28.86 11.93 27.89 14.31L27.63 14.95L26.96 14.77C25.36 14.34 23.89 13.83 22.58 13.25L21.4799 12.76L22.3699 11.94L22.36 11.97ZM25.22 27.51L25.19 28.26H14.83L14.89 27.42C15.22 22.65 16.9999 18.15 20.0399 14.42L20.44 13.94L21 14.21C22.59 14.99 24.38 15.65 26.34 16.19L27.1199 16.4L26.89 17.17C25.94 20.33 25.3899 23.81 25.2299 27.5L25.22 27.51ZM26.71 28.26L26.75 27.44C26.91 23.88 27.47 20.51 28.41 17.44L28.6199 16.76L29.31 16.89C31.61 17.33 34.02 17.6 36.4799 17.68L37.24 17.7V28.26H26.7H26.71ZM36.41 52.22C36.03 52.19 35.65 52.16 35.28 52.11L34.96 52.07L34.7599 51.82C34.6999 51.75 34.65 51.7 34.6 51.66C32.41 50.21 30.51 47.45 29.08 43.69L28.75 42.81L29.67 42.63C31.84 42.21 34.1199 41.96 36.4299 41.89L37.24 41.86V51.39L37.28 52.27L36.3999 52.21L36.41 52.22ZM38.77 6.35996L39.81 6.71996C42.06 7.48996 44.21 9.71996 45.86 13C46.08 13.44 46.29 13.91 46.49 14.39L46.88 15.3L45.8999 15.48C43.8599 15.85 41.73 16.07 39.57 16.14L38.7599 16.17V6.36996L38.77 6.35996ZM38.77 17.7L39.53 17.68C41.99 17.6 44.4 17.34 46.7 16.89L47.39 16.76L47.6 17.44C48.54 20.52 49.0999 23.88 49.2599 27.44L49.3 28.26H38.7599V17.7H38.77ZM38.77 29.78H49.32L49.3 30.58C49.23 34.17 48.7699 37.56 47.9299 40.64L47.74 41.35L47.02 41.2C44.61 40.72 42.09 40.43 39.53 40.35L38.77 40.33V29.77V29.78ZM41.0099 51.93L40.78 52.09L40.59 52.11C40.27 52.15 39.9499 52.18 39.6199 52.21L38.77 52.28V41.87L39.59 41.9C41.91 41.98 44.1899 42.23 46.3699 42.65L47.2899 42.83L46.91 43.85C45.42 47.73 43.32 50.6 41.02 51.93H41.0099ZM53.66 46.08C52.81 46.87 51.93 47.58 51.06 48.18C50.86 48.32 50.66 48.44 50.46 48.57C50.14 48.78 49.8 48.98 49.46 49.18C49.06 49.41 48.66 49.62 48.25 49.83L47.88 50.01C47.49 50.19 47.1 50.36 46.71 50.52L44.27 51.51L45.7599 49.34C46.82 47.8 47.75 45.96 48.5099 43.87L48.7599 43.18L49.46 43.38C50.87 43.78 52.2099 44.25 53.4299 44.79L54.53 45.27L53.6499 46.09L53.66 46.08ZM61.05 30.63C60.74 35.39 58.98 39.88 55.97 43.62L55.58 44.11L55.02 43.83C53.51 43.09 51.82 42.46 49.9799 41.93L49.2299 41.72L49.4299 40.97C50.2899 37.76 50.76 34.25 50.83 30.56L50.85 29.79H61.11L61.06 30.63H61.05Z" fill="#434343"/>
<path d="M21.12 34.07L17.1 37.04H5.8C2.6 37.04 0 39.64 0 42.84V52.32C0 55.52 2.6 58.12 5.8 58.12H21.9C25.1 58.12 27.7 55.52 27.7 52.32V42.84C27.7 40.01 25.68 37.61 22.89 37.13L22.47 37.06V34.77C22.47 34.45 22.29 34.15 22 34.01C21.72 33.87 21.36 33.9 21.11 34.09L21.12 34.07ZM21.9 38.75C24.16 38.75 25.99 40.58 25.99 42.84V52.32C25.99 54.58 24.16 56.41 21.9 56.41H5.8C3.54 56.41 1.71001 54.57 1.71001 52.32V42.84C1.71001 40.58 3.54 38.75 5.8 38.75H17.38C17.56 38.75 17.74 38.69 17.89 38.58L20.77 36.45V37.89C20.77 38.36 21.15 38.74 21.62 38.74H21.9V38.75Z" fill="#434343"/>
<path d="M54.9301 24.05L58.9501 21.08H70.2501C73.4501 21.08 76.0501 18.48 76.0501 15.28V5.8C76.0501 2.6 73.4501 0 70.2501 0H54.1501C50.9501 0 48.3501 2.6 48.3501 5.8V15.28C48.3501 18.11 50.3701 20.51 53.1601 20.99L53.5801 21.06V23.35C53.5801 23.67 53.7601 23.97 54.0501 24.11C54.3301 24.25 54.6901 24.22 54.9401 24.03L54.9301 24.05ZM54.1501 19.37C51.8901 19.37 50.0601 17.54 50.0601 15.28V5.8C50.0601 3.54 51.8901 1.71 54.1501 1.71H70.2501C72.5101 1.71 74.3401 3.55 74.3401 5.8V15.28C74.3401 17.54 72.5101 19.37 70.2501 19.37H58.6701C58.4901 19.37 58.3101 19.43 58.1601 19.54L55.2801 21.67V20.23C55.2801 19.76 54.9001 19.38 54.4301 19.38H54.1501V19.37Z" fill="#434343"/>
<path d="M55.34 7.17017C54.87 7.17017 54.49 7.55017 54.49 8.02017C54.49 8.49017 54.87 8.87017 55.34 8.87017H69.11C69.58 8.87017 69.96 8.49017 69.96 8.02017C69.96 7.55017 69.58 7.17017 69.11 7.17017H55.34Z" fill="#434343"/>
<path d="M65.92 12.6001H55.63C55 12.6001 54.48 12.8501 54.48 13.1601C54.48 13.4701 55 13.7201 55.63 13.7201H65.92C66.55 13.7201 67.07 13.4701 67.07 13.1601C67.07 12.8501 66.55 12.6001 65.92 12.6001Z" fill="#434343"/>
</svg>
