<svg width="70" height="66" viewBox="0 0 70 66" fill="none" xmlns="http://www.w3.org/2000/svg">
<path d="M14.1499 16.67C11.6299 16.67 9.00986 18.31 8.85986 21.98C8.85986 24.86 11.2299 27.21 14.1499 27.21C17.0699 27.21 19.4399 24.84 19.4399 21.92C19.2899 18.29 16.6699 16.67 14.1499 16.67V16.67ZM14.1499 25.67C12.3599 25.67 10.4899 24.4 10.3899 21.98C10.3899 20.95 10.7799 19.99 11.4899 19.27C12.1999 18.56 13.1399 18.16 14.1499 18.16C16.2199 18.16 17.9099 19.85 17.9099 21.92C17.8099 24.38 15.9399 25.67 14.1499 25.67Z" fill="#434343"/>
<path d="M14.1499 47.95C14.4399 47.95 14.6799 47.82 14.8099 47.62L25.6999 29.42C28.4099 25.02 28.5399 19.5 26.0399 15.01C23.6299 10.68 19.2199 8.08997 14.2599 8.08997C6.76993 8.08997 0.679932 14.18 0.679932 21.67C0.679932 24.4 1.39993 27.06 2.76993 29.39L13.5099 47.62C13.6299 47.83 13.8799 47.95 14.1699 47.96L14.1499 47.95ZM4.07993 28.61C2.84993 26.52 2.19993 24.14 2.19993 21.72C2.19993 15.04 7.60993 9.60997 14.2499 9.60997C18.6899 9.63997 22.6099 11.94 24.7199 15.77C26.9299 19.76 26.7999 24.69 24.3699 28.64L14.1499 45.73L4.07993 28.61Z" fill="#434343"/>
<path d="M55.6799 19.1001C58.2099 19.1001 60.8199 17.4601 60.9699 13.7901C60.9699 10.9101 58.5999 8.56006 55.6799 8.56006C52.7599 8.56006 50.3899 10.9301 50.3899 13.8501C50.5399 17.4801 53.1499 19.1001 55.6799 19.1001ZM55.6799 10.1001C57.4699 10.1001 59.3399 11.3701 59.4399 13.7901C59.4399 14.8201 59.0499 15.7801 58.3399 16.5001C57.6299 17.2101 56.6899 17.6101 55.6799 17.6101C53.6099 17.6101 51.9199 15.9201 51.9199 13.8501C52.0199 11.3901 53.8899 10.1001 55.6799 10.1001V10.1001Z" fill="#434343"/>
<path d="M67.57 6.92C65.15 2.59 60.75 0 55.79 0C48.3 0 42.21 6.09 42.21 13.58C42.21 16.31 42.93 18.98 44.3 21.3L55.03 39.53C55.15 39.74 55.4 39.86 55.68 39.86H55.72C55.99 39.85 56.22 39.72 56.34 39.53L67.22 21.33C69.93 16.93 70.06 11.41 67.56 6.92H67.57ZM55.69 37.64L45.61 20.52C44.38 18.43 43.73 16.05 43.73 13.63C43.73 6.95 49.14 1.52 55.78 1.52C60.22 1.55 64.13 3.85 66.26 7.68C68.47 11.67 68.33 16.6 65.91 20.55L55.69 37.63V37.64Z" fill="#434343"/>
<path d="M61.0899 51.03C61.0899 48.12 58.7099 45.74 55.7799 45.74C53.3499 45.74 51.2299 47.39 50.6299 49.75L50.4499 50.48L50.2499 50.54L19.5899 59.53L19.1199 58.47C17.8399 55.59 15.3199 55.28 14.2999 55.28C13.9199 55.28 13.5399 55.32 13.1799 55.39C11.2499 55.78 8.98994 57.38 8.93994 60.57C9.02994 64.01 11.5099 65.53 13.5999 65.79C15.8599 66.06 18.5399 64.94 19.3999 61.83L19.5999 61.12L19.7899 61.06L50.4299 52.08L50.8999 53.14C52.1999 56.05 54.9099 56.61 56.8399 56.22C58.7699 55.83 61.0299 54.23 61.0899 51.03V51.03ZM16.9199 63.23C16.2099 63.95 15.2599 64.34 14.2499 64.34C12.1699 64.34 10.4699 62.64 10.4699 60.56C10.5699 58.08 12.4499 56.79 14.2499 56.79C16.0499 56.79 17.9299 58.06 18.0299 60.5C18.0299 61.54 17.6399 62.5 16.9199 63.22V63.23ZM58.4499 53.72C57.7399 54.44 56.7899 54.83 55.7799 54.83C53.6999 54.83 51.9999 53.13 51.9999 51.05C52.0999 48.57 53.9799 47.28 55.7799 47.28C57.5799 47.28 59.4599 48.55 59.5599 50.99C59.5599 52.03 59.1699 52.99 58.4499 53.71V53.72Z" fill="#434343"/>
</svg>
