<svg width="54" height="63" viewBox="0 0 54 63" fill="none" xmlns="http://www.w3.org/2000/svg">
<path d="M41.2499 39.74L34.1599 31.31C33.6899 30.75 32.9899 30.44 32.2599 30.48C31.5299 30.52 30.8699 30.88 30.4499 31.48C29.2199 33.26 29.1499 35.61 30.2699 37.47L32.0399 40.4L26.7899 45.59L21.6499 40.4L23.4199 37.47C24.5399 35.62 24.4699 33.26 23.2399 31.48C22.8199 30.88 22.1599 30.51 21.4299 30.48C20.6799 30.45 20.0099 30.75 19.5299 31.31L12.4399 39.74C12.3099 39.89 12.2499 40.08 12.2699 40.28C12.2899 40.48 12.3799 40.66 12.5299 40.78C12.6799 40.91 12.8799 40.97 13.0699 40.95C13.2699 40.93 13.4499 40.84 13.5699 40.69L20.6599 32.26C20.8299 32.05 21.0799 31.96 21.3499 31.96C21.5099 31.96 21.8099 32.03 22.0199 32.33C22.9199 33.64 22.9699 35.36 22.1499 36.71L16.7299 45.67C16.5199 46.02 16.6299 46.47 16.9799 46.69C17.3199 46.9 17.7899 46.78 17.9899 46.44L20.6599 42.02L22.7599 46.55C23.5499 48.26 23.9699 50.16 23.9699 52.05V61.35C23.9699 61.76 24.2999 62.09 24.7099 62.09C25.1199 62.09 25.4499 61.76 25.4499 61.35V52.05C25.4499 49.95 24.9799 47.84 24.0999 45.93L23.2999 44.19L26.2499 47.17C26.5299 47.45 27.0199 47.45 27.2899 47.17L30.4099 44.09L29.5599 45.92C28.6799 47.82 28.2099 49.94 28.2099 52.04V61.34C28.2099 61.75 28.5399 62.08 28.9499 62.08C29.3599 62.08 29.6899 61.75 29.6899 61.34V52.04C29.6899 50.15 30.1099 48.25 30.8999 46.54L32.9899 42.01L35.6599 46.43C35.8599 46.77 36.3399 46.88 36.6699 46.68C37.0199 46.47 37.1299 46.01 36.9199 45.67L31.4999 36.71C30.6799 35.35 30.7299 33.63 31.6299 32.33C31.8399 32.03 32.1299 31.97 32.2899 31.96C32.4399 31.96 32.7499 31.98 32.9899 32.26L40.0799 40.69C40.3399 41 40.8099 41.04 41.1199 40.78C41.4299 40.52 41.4699 40.05 41.2099 39.74H41.2499Z" fill="#434343"/>
<path d="M40.8399 61.49C41.2499 61.49 41.5799 61.16 41.5799 60.75V54.81C41.5799 53.93 41.9399 53.07 42.5699 52.45L45.0399 50.02C46.5499 48.54 47.5499 46.66 47.9199 44.57L49.5099 35.75C49.6999 34.72 49.7199 33.67 49.5899 32.63L48.7199 25.96L49.3799 25.3C55.1299 19.6 55.1799 10.29 49.4899 4.53002C43.7999 -1.21998 34.4799 -1.26997 28.7199 4.42003L26.9899 6.13002L25.3999 4.53002C19.6999 -1.21998 10.3899 -1.26997 4.62994 4.42003C-1.13006 10.12 -1.17006 19.43 4.51994 25.19L5.04994 25.73L4.96994 25.95C4.96994 25.95 4.94994 26 4.93994 26.02L4.07994 32.63C3.93994 33.67 3.96994 34.71 4.15994 35.75L5.74994 44.57C6.12994 46.65 7.11994 48.54 8.62994 50.02L11.0999 52.45C11.7299 53.07 12.0899 53.93 12.0899 54.81V60.75C12.0899 61.16 12.4199 61.49 12.8299 61.49C13.2399 61.49 13.5699 61.16 13.5699 60.75V54.81C13.5699 53.53 13.0499 52.29 12.1399 51.39L9.66993 48.96C8.37993 47.69 7.52994 46.08 7.20994 44.3L5.61993 35.48C5.45993 34.6 5.43993 33.7 5.55993 32.82L6.31994 27L13.5099 34.27C13.7999 34.56 14.2699 34.56 14.5599 34.27C14.8499 33.98 14.8499 33.51 14.5599 33.22L5.57994 24.15C0.459938 18.97 0.499928 10.59 5.67993 5.47002C10.8599 0.350019 19.2399 0.390026 24.3599 5.57003L26.4699 7.70003C26.6099 7.84003 26.7899 7.92003 26.9899 7.92003C27.1899 7.92003 27.3699 7.84001 27.5099 7.71001L29.7699 5.48003C32.2599 3.02003 35.5499 1.66002 39.0599 1.66002C39.0799 1.66002 39.1099 1.66002 39.1299 1.66002C42.6599 1.68002 45.9699 3.07003 48.4499 5.57003C50.9299 8.08003 52.2899 11.4 52.2699 14.93C52.2499 18.46 50.8599 21.77 48.3499 24.25L39.2099 33.3C39.0699 33.44 38.9899 33.62 38.9899 33.82C38.9899 34.02 39.0699 34.2 39.1999 34.34C39.4799 34.62 39.9599 34.62 40.2399 34.34L47.3999 27.26L48.1199 32.81C48.2399 33.7 48.2099 34.59 48.0499 35.47L46.4599 44.29C46.1399 46.07 45.2899 47.68 43.9999 48.95L41.5299 51.38C40.6199 52.27 40.0899 53.52 40.0899 54.8V60.74C40.0899 61.15 40.4199 61.48 40.8299 61.48L40.8399 61.49Z" fill="#434343"/>
</svg>
