<svg width="83" height="22" viewBox="0 0 83 22" fill="none" xmlns="http://www.w3.org/2000/svg">
<g clip-path="url(#clip0_200_1833)">
<path d="M76.013 12.4605L73.263 13.8294C73.263 13.8294 73.2082 13.8512 73.1753 13.862C73.1315 13.8838 73.011 13.9272 73 13.9489C73 13.9489 73.0219 14.0033 73.0329 14.0359C73.0329 14.0467 73.0438 14.0576 73.0548 14.0684C73.2082 14.3618 73.4054 14.6334 73.6464 14.8941C74.0957 15.383 74.6763 15.7741 75.3228 16.0349C76.2541 16.4151 77.3388 16.5455 78.5549 16.4368C79.3548 16.3608 80.0122 16.1978 80.5819 15.9262C81.2612 15.6112 81.7981 15.144 82.1268 14.5791C82.4445 14.0359 82.5979 13.3623 82.5541 12.6344C82.5102 11.9499 82.3021 11.3524 81.9624 10.8961C81.557 10.3638 80.8996 9.95091 79.9793 9.65758C79.6506 9.54894 79.3109 9.46203 78.9822 9.38598C78.533 9.26647 78.0729 9.15783 77.6346 8.984C77.2949 8.85363 77.1196 8.69067 77.1087 8.47338C77.0977 8.26696 77.2511 8.09314 77.4045 7.99536C77.7332 7.7998 78.1934 7.7998 78.5769 7.99536C78.8727 8.14746 79.1356 8.39733 79.3767 8.76672L82.3459 7.44128C81.8857 6.53956 81.053 5.80079 80.045 5.38795C79.0808 4.99684 77.9852 4.89906 76.8457 5.10548C75.9473 5.26844 75.2023 5.59437 74.6435 6.06153C73.9313 6.66993 73.4821 7.59338 73.4602 8.53857C73.4383 9.22301 73.6355 9.87486 74.008 10.3855C74.4243 10.9396 75.0817 11.3633 76.013 11.6892C76.3527 11.8087 76.7033 11.9065 77.0429 12.0042C77.4812 12.1238 77.9414 12.2541 78.3796 12.428C78.4892 12.4714 78.5988 12.5149 78.6864 12.6018C78.8946 12.8191 78.8179 13.1776 78.6316 13.3623C78.4235 13.5687 78.1167 13.623 77.8975 13.623C77.1087 13.6339 76.3417 13.145 76.024 12.4388L76.013 12.4605Z" fill="#C7F0F2"/>
<path d="M67.2073 4.66077C66.8786 4.66077 66.5499 4.68249 66.1993 4.73682C63.3835 5.13879 61.3785 7.42027 61.3346 10.2776C61.3018 12.6677 62.507 14.645 64.5668 15.5467C66.1664 16.2529 67.8866 16.3398 69.6725 15.8074C70.6696 15.5141 71.4694 14.9709 72.1268 14.1669L71.6666 13.841C71.0202 13.3956 70.4066 12.9719 69.793 12.5482L69.5958 12.4178L69.3986 12.5699C68.6536 13.1131 67.7771 13.2761 66.7252 13.0697C65.8597 12.9067 65.3228 12.483 65.0379 11.7334L65.0051 11.6356H72.7842C72.7842 11.4292 72.7842 11.2336 72.7842 11.0381C72.7951 10.5709 72.8061 10.1255 72.7623 9.68003C72.6089 8.10472 71.8748 6.72496 70.7024 5.80151C69.7273 5.04101 68.533 4.6499 67.2073 4.6499V4.66077ZM69.7602 9.44101H64.6106V9.37583C64.5887 8.55015 65.6734 7.49632 66.9772 7.45287C68.4673 7.40941 69.5191 8.13731 69.7492 9.3541V9.44101H69.7602Z" fill="#C7F0F2"/>
<path d="M54.5304 4.59562C51.2106 4.59562 48.592 7.17043 48.6139 10.408C48.6358 13.6238 51.2544 16.2094 54.5304 16.2203C57.8502 16.2203 60.4579 13.6455 60.4579 10.3536C60.4579 7.11611 57.8502 4.58475 54.5414 4.59562H54.5304ZM54.5304 13.1675C52.9636 13.1675 51.8351 11.9941 51.8351 10.3754C51.8351 8.7892 52.9636 7.62673 54.5085 7.61586C56.0753 7.61586 57.2367 8.7892 57.2367 10.3862C57.2367 11.9833 56.0862 13.1675 54.5194 13.1675H54.5304Z" fill="#C7F0F2"/>
<path d="M35.7949 16.1224C35.7949 19.5229 38.5779 22 42.0072 22C45.4366 22 48.2744 19.5338 48.2744 16.1224H45.4695C45.1518 17.7195 43.7384 18.9254 42.0401 18.9254C40.3419 18.9254 38.9285 17.7195 38.6107 16.1224H38.545H35.7949Z" fill="#C7F0F2"/>
<path d="M47.1977 7.12889C47.4058 6.82469 47.9098 6.75951 47.9098 6.75951C47.9098 6.75951 47.9098 6.78124 47.8989 4.07605C46.6718 4.10864 45.8062 4.73877 45.4337 5.09728C44.4585 4.40198 43.2424 4 41.9166 4C38.5968 4 35.9782 6.57482 36.0001 9.81235C36.022 13.0281 38.6407 15.6138 41.9166 15.6247C45.2365 15.6247 47.8441 13.0499 47.8441 9.75803C47.8441 8.80198 47.614 7.91111 47.2086 7.12889H47.1977ZM41.9166 12.5719C40.3499 12.5719 39.2213 11.3985 39.2213 9.77975C39.2213 8.19358 40.3499 7.03111 41.8947 7.02025C43.4615 7.02025 44.6229 8.19358 44.6229 9.79062C44.6229 11.3877 43.4725 12.5719 41.9057 12.5719H41.9166Z" fill="#C7F0F2"/>
<path d="M34.6993 15.8944H31.0508V4.91064H34.6993V15.8944Z" fill="#F8F8F8"/>
<path d="M30.9741 1.89037C30.9741 0.847408 31.8287 0 32.8805 0C33.9214 0 34.787 0.858272 34.787 1.89037C34.787 2.92247 33.9105 3.78074 32.8805 3.78074C31.8397 3.78074 30.9851 2.92247 30.9851 1.89037H30.9741Z" fill="#F8F8F8"/>
<path d="M29.9552 9.49533C29.9552 8.4741 29.8895 7.50718 29.3855 6.58373C28.9253 5.74719 28.1803 5.09533 27.249 4.82373C25.7151 4.36743 24.225 4.4978 22.9431 5.60595C22.8116 5.71459 22.702 5.8341 22.5706 5.9536C20.8833 4.13928 19.0207 4.10669 16.7088 5.85583C15.5694 4.73681 14.3313 4.46521 13.0932 4.43262C13.0932 5.23657 13.0932 5.80151 13.0932 6.19262C13.0932 9.40842 13.0713 12.8198 13.0713 15.8835H16.7088C16.7088 15.6771 16.7088 15.5032 16.7088 15.3294C16.7088 13.5151 16.6979 11.7008 16.7088 9.88644C16.7088 9.16941 16.8622 8.4741 17.6401 8.15904C18.6591 7.73533 19.6123 8.34373 19.6233 9.43015C19.6342 11.44 19.6233 13.4608 19.6233 15.4706C19.6233 15.6119 19.6233 15.7531 19.6233 15.8835H23.3156V15.4163C23.3156 13.6346 23.3046 11.842 23.3156 10.0603C23.3156 9.64743 23.3813 9.22373 23.5238 8.84348C23.7319 8.26768 24.3346 7.98521 24.981 8.03953C25.6274 8.09385 26.0218 8.43064 26.1643 9.07163C26.2081 9.28891 26.2081 9.52793 26.2081 9.75607C26.2081 11.6682 26.2081 13.5694 26.2081 15.4815V15.8943H29.9224C29.9224 13.765 29.9224 11.6356 29.9224 9.49533H29.9552Z" fill="#F8F8F8"/>
<path d="M11.8551 10.1146C11.7893 9.202 11.614 8.28941 11.1977 7.48546C11.3949 7.12694 11.9098 7.11607 11.9098 7.11607C11.9098 7.11607 11.9098 7.1378 11.8989 4.43262C10.6718 4.46521 9.80619 5.09533 9.43367 5.45385C8.45854 4.75854 7.24237 4.35657 5.91664 4.35657C2.59682 4.35657 -0.0217764 6.92052 0.000136527 10.1689C0.0220495 13.3847 2.64065 15.9704 5.91664 15.9813C6.90272 15.9813 7.83402 15.6119 8.6448 15.199V15.8618H11.9098V11.8855C11.9098 11.3097 11.9098 10.7121 11.866 10.1146H11.8551ZM5.92759 12.9284C4.36082 12.9284 3.2323 11.7551 3.2323 10.1363C3.2323 8.55015 4.36082 7.38768 5.90568 7.37681C7.47246 7.37681 8.63384 8.55015 8.63384 10.1472C8.63384 11.7442 7.48341 12.9284 5.91664 12.9284H5.92759Z" fill="#F8F8F8"/>
</g>
<defs>
<clipPath id="clip0_200_1833">
<rect width="82.6667" height="22" fill="#F8F8F8"/>
</clipPath>
</defs>
</svg>
