<svg width="47" height="46" viewBox="0 0 47 46" fill="none" xmlns="http://www.w3.org/2000/svg">
<path d="M32.15 35.97C30.63 36.67 29.03 37 27.45 37C23.85 37 20.37 35.2701 18.21 32.1301L17.71 31.4L38.1 22.04L38.33 22.9C39.73 28.19 37.13 33.69 32.15 35.97Z" fill="#EE6653"/>
<path d="M2.99008 12.9799C0.340078 18.4299 -0.0299215 24.5899 1.95008 30.3199C5.11008 39.4599 13.7401 45.6099 23.4301 45.6099C25.9401 45.6099 28.4301 45.1899 30.8201 44.3599C42.6501 40.2699 48.9501 27.3199 44.8601 15.4899C42.8801 9.75994 38.7901 5.13994 33.3301 2.48994C30.1901 0.959944 26.8101 0.189941 23.4201 0.189941C20.9201 0.189941 18.4201 0.609936 15.9901 1.44994C10.2601 3.42994 5.64008 7.51993 2.99008 12.9799ZM16.6801 3.43994C18.8701 2.67994 21.1401 2.29994 23.4201 2.29994C26.5401 2.29994 29.5701 2.99994 32.4101 4.37994C37.3601 6.78994 41.0701 10.9699 42.8701 16.1699C46.5801 26.8999 40.8601 38.6499 30.1301 42.3599C27.9101 43.1299 25.6501 43.4899 23.4201 43.4899C14.8801 43.4899 6.88008 38.1299 3.94008 29.6199C2.14008 24.4199 2.48008 18.8299 4.88008 13.8899C7.29008 8.93994 11.4701 5.22993 16.6701 3.42993L16.6801 3.43994Z" fill="#434343"/>
<path d="M13.64 20.4899C13.88 21.0199 14.51 21.2499 15.04 21.0099C15.29 20.8899 15.49 20.6799 15.59 20.4199C15.69 20.1599 15.68 19.8699 15.56 19.6099C15.17 18.7499 14.47 18.0999 13.59 17.7799C13.19 17.6299 12.77 17.5599 12.36 17.5599C11.86 17.5599 11.36 17.6699 10.89 17.8799C9.13 18.6899 8.35 20.7799 9.15 22.5499C9.39 23.0599 10.03 23.3099 10.55 23.0699C11.08 22.8299 11.31 22.1999 11.07 21.6699C10.74 20.9599 11.06 20.1199 11.77 19.7899C12.11 19.6299 12.5 19.6199 12.85 19.7499C13.21 19.8799 13.49 20.1499 13.65 20.4899H13.64Z" fill="#434343"/>
<path d="M30.8201 13.7799C31.3501 13.5399 31.5801 12.9099 31.3401 12.3799C30.7501 11.0899 29.4701 10.3199 28.1301 10.3199C27.6401 10.3199 27.1401 10.4199 26.6701 10.6399C24.9001 11.4499 24.1301 13.5399 24.9301 15.3099C25.1601 15.8199 25.8101 16.0599 26.3201 15.8299C26.5801 15.7099 26.7701 15.4999 26.8701 15.2399C26.9701 14.9799 26.9601 14.6899 26.8401 14.4399C26.5201 13.7299 26.8301 12.8899 27.5401 12.5599C28.2501 12.2399 29.0901 12.5599 29.4201 13.2599C29.6601 13.7899 30.2801 14.0199 30.8201 13.7799Z" fill="#434343"/>
<path d="M35.95 18.78C35.83 18.74 35.71 18.71 35.58 18.71C35.43 18.71 35.28 18.74 35.14 18.81L12.81 29.06C12.28 29.3 12.05 29.93 12.29 30.46C14.46 35.18 19.22 38.2299 24.43 38.2299C26.35 38.2299 28.22 37.8199 29.97 37.0099C36.65 33.9399 39.59 26.01 36.53 19.32C36.41 19.07 36.2 18.87 35.94 18.77L35.95 18.78ZM29.11 35.1C27.59 35.8 25.99 36.13 24.41 36.13C20.81 36.13 17.33 34.3999 15.17 31.2599L14.67 30.53L35.06 21.17L35.29 22.03C36.69 27.32 34.09 32.82 29.11 35.1Z" fill="#434343"/>
</svg>
