<svg width="63" height="61" viewBox="0 0 63 61" fill="none" xmlns="http://www.w3.org/2000/svg">
<path d="M62.42 28.24C62.42 30.34 60.71 32.04 58.62 32.04H56.33C54.86 32.04 53.54 32.96 53.04 34.34L51.93 37.38L50.82 34.34C50.32 32.96 49 32.04 47.53 32.04H26.52C24.42 32.04 22.72 30.33 22.72 28.24V8.05C22.72 5.95 24.43 4.25 26.52 4.25H58.61C60.71 4.25 62.41 5.96 62.41 8.05V28.24H62.42Z" fill="#EE6653"/>
<path d="M23.24 34.2601C23.24 33.7701 22.84 33.3701 22.35 33.3701C21.86 33.3701 21.46 33.7701 21.46 34.2601V36.3401H16.36C15.87 36.3401 15.47 36.7401 15.47 37.2301C15.47 37.7201 15.87 38.1201 16.36 38.1201H18.5C18.9 39.7901 19.76 41.4801 21.03 42.8701C19.88 43.7301 18.35 44.4601 16.34 44.8701C15.86 44.9701 15.55 45.4401 15.65 45.9201C15.75 46.4001 16.22 46.7101 16.7 46.6101C19.18 46.1101 21.01 45.1601 22.36 44.1001C23.71 45.1601 25.54 46.1101 28.02 46.6101C28.5 46.7101 28.97 46.4001 29.07 45.9201C29.17 45.4401 28.86 44.9701 28.38 44.8701C26.36 44.4601 24.84 43.7301 23.68 42.8801C24.95 41.4901 25.82 39.8001 26.21 38.1201H28.35C28.84 38.1201 29.24 37.7201 29.24 37.2301C29.24 36.7401 28.84 36.3401 28.35 36.3401H23.25V34.2601H23.24ZM24.36 38.1201C24.1 39.0101 23.53 40.3801 22.34 41.6901C21.15 40.3901 20.59 39.0101 20.33 38.1201H24.36Z" fill="#434343"/>
<path d="M40.5201 9.75006C40.3901 9.41006 40.06 9.18005 39.69 9.18005C39.32 9.18005 38.99 9.41006 38.86 9.75006L34.51 21.2301C34.34 21.6901 34.57 22.2001 35.03 22.3701C35.49 22.5401 36 22.3101 36.17 21.8501L37.03 19.5801C37.03 19.5801 37.09 19.5801 37.12 19.5801H42.31C42.31 19.5801 42.34 19.5801 42.36 19.5801L43.22 21.8501C43.39 22.3101 43.91 22.5401 44.36 22.3701C44.82 22.2001 45.0501 21.6801 44.8801 21.2301L40.53 9.75006H40.5201ZM37.7 17.8201L39.69 12.5701L41.68 17.8201H37.7Z" fill="#434343"/>
<path d="M55.74 0.300049H23.65C20.57 0.300049 18.07 2.80005 18.07 5.88005V24.09H6.30998C3.22998 24.09 0.72998 26.59 0.72998 29.67V49.86C0.72998 52.94 3.22998 55.44 6.30998 55.44H8.59999C9.31999 55.44 9.96999 55.9001 10.22 56.5701L11.39 59.78C11.64 60.46 12.27 60.9 13 60.9C13.73 60.9 14.36 60.46 14.61 59.78L15.78 56.5701C16.03 55.8901 16.68 55.44 17.4 55.44H38.41C41.49 55.44 43.99 52.94 43.99 49.86V31.65H44.67C45.39 31.65 46.04 32.11 46.29 32.78L47.46 35.9901C47.71 36.6701 48.34 37.11 49.07 37.11C49.8 37.11 50.43 36.6701 50.68 35.9901L51.85 32.78C52.1 32.1 52.75 31.65 53.47 31.65H55.76C58.84 31.65 61.34 29.1501 61.34 26.0701V5.88005C61.34 2.80005 58.84 0.300049 55.76 0.300049H55.74ZM42.2 49.8501C42.2 51.9501 40.49 53.65 38.4 53.65H17.39C15.92 53.65 14.6 54.57 14.1 55.95L12.99 58.9901L11.88 55.95C11.38 54.57 10.06 53.65 8.58998 53.65H6.29999C4.19999 53.65 2.49998 51.9401 2.49998 49.8501V29.66C2.49998 27.56 4.20999 25.86 6.29999 25.86H18.06V26.06C18.06 29.14 20.56 31.64 23.64 31.64H42.2V49.8501ZM59.54 26.06C59.54 28.16 57.83 29.86 55.74 29.86H53.45C51.98 29.86 50.66 30.7801 50.16 32.16L49.05 35.2L47.94 32.16C47.44 30.7801 46.12 29.86 44.65 29.86H23.64C21.54 29.86 19.84 28.15 19.84 26.06V5.87004C19.84 3.77004 21.55 2.07005 23.64 2.07005H55.73C57.83 2.07005 59.53 3.78004 59.53 5.87004V26.06H59.54Z" fill="#434343"/>
</svg>
