<svg width="80" height="80" viewBox="0 0 80 80" fill="none" xmlns="http://www.w3.org/2000/svg">
<path d="M34.8801 26.39C34.8801 24.14 36.7101 22.31 38.9601 22.31C41.2101 22.31 43.0401 24.14 43.0401 26.39C43.0401 28.64 41.2101 30.47 38.9601 30.47C36.7101 30.47 34.8801 28.63 34.8801 26.39ZM13.7101 26.39C13.7101 24.14 15.5401 22.31 17.7901 22.31C20.0401 22.31 21.8701 24.14 21.8701 26.39C21.8701 28.64 20.0401 30.47 17.7901 30.47C15.5401 30.47 13.7101 28.63 13.7101 26.39ZM23.6501 70.43C23.6501 71.57 22.4701 72.94 21.0001 72.94C19.6201 72.94 18.4901 71.81 18.4901 70.43V58.2C18.4901 57.81 18.1701 57.5 17.7901 57.5C17.4101 57.5 17.0901 57.82 17.0901 58.2V70.43C17.0901 71.82 15.9601 72.95 14.5801 72.95C13.1901 72.95 12.0701 71.82 12.0701 70.44V53.71L12.5001 53.57C13.5701 53.23 14.3301 52.47 14.6501 51.43L14.7801 50.99H23.6601V70.43H23.6501ZM44.8201 70.43C44.8201 71.57 43.6401 72.94 42.1701 72.94C40.7901 72.94 39.6601 71.81 39.6601 70.43V58.2C39.6601 57.81 39.3401 57.5 38.9601 57.5C38.5801 57.5 38.2601 57.82 38.2601 58.2V70.43C38.2601 71.82 37.1301 72.95 35.7501 72.95C34.3601 72.95 33.2401 71.82 33.2401 70.44V53.71L33.6501 53.56C34.6201 53.21 35.3701 52.41 35.6701 51.43L35.8001 50.99H44.8301V70.43H44.8201ZM73.4501 18.94C73.4501 21.44 71.4101 23.48 68.9101 23.48H62.2401C62.0201 23.48 61.8201 23.58 61.6901 23.75L57.5201 29.05L57.4201 28.93L53.3601 23.76C53.2301 23.59 53.0201 23.49 52.8101 23.49C50.3101 23.49 48.2701 21.45 48.2701 18.95V13.52C48.2701 11.02 50.3101 8.97998 52.8101 8.97998H68.9201C71.4201 8.97998 73.4601 11.02 73.4601 13.52V18.94H73.4501Z" fill="#EE6653"/>
<path d="M73.34 12.5501C73.34 9.2701 70.67 6.6001 67.39 6.6001H51.2901C48.0101 6.6001 45.34 9.2701 45.34 12.5501V17.9801C45.34 21.0401 47.63 23.5801 50.68 23.9001L50.94 23.9301L50.9701 23.9701L54.5201 28.4901L53.8601 28.8401C53.4101 29.0801 53.21 29.2701 52.35 30.0901L52.26 30.1701C51.81 30.6001 51.19 31.2001 50.3 32.0201L49.9901 32.3101L49.6101 32.1301C48.0601 31.3901 47.0201 30.8801 46.3801 30.5501L46.2901 30.5301L45.7901 30.3001C44.7501 29.7901 43.6 29.5201 42.48 29.5201H41.2901L41.96 28.5401C43.13 26.8401 43.25 24.7301 42.28 22.8901C41.32 21.0501 39.51 19.9601 37.44 19.9601C35.37 19.9601 33.56 21.0501 32.6 22.8901C31.63 24.7301 31.75 26.8401 32.92 28.5401L33.59 29.5201H20.11L20.78 28.5401C21.95 26.8401 22.07 24.7301 21.1 22.8901C20.14 21.0601 18.33 19.9601 16.26 19.9601C13.24 19.9601 10.78 22.4201 10.78 25.4401C10.78 26.6201 11.15 27.7401 11.85 28.6901L12.42 29.4601L11.49 29.6701C8.63005 30.3201 6.55005 32.9201 6.55005 35.8501V49.4601C6.55005 50.8601 7.42005 52.1301 8.72005 52.6101L9.13005 52.7601V69.4801C9.13005 71.6401 10.89 73.4001 13.05 73.4001C14.1 73.4001 15.08 72.9901 15.83 72.2501L16.27 71.8101L16.71 72.2501C17.45 72.9901 18.44 73.4001 19.49 73.4001C21.81 73.4001 23.55 71.3301 23.55 69.4801V38.0101C23.55 37.3501 24.09 36.8201 24.74 36.8201H27.74V49.4601C27.74 50.8601 28.61 52.1201 29.91 52.6101L30.32 52.7601V69.4801C30.32 71.6401 32.0801 73.4001 34.2401 73.4001C35.2901 73.4001 36.27 72.9901 37.01 72.2501L37.4501 71.8101L37.89 72.2501C38.63 72.9901 39.62 73.4001 40.67 73.4001C42.99 73.4001 44.73 71.3301 44.73 69.4801V37.2301L49.19 39.3801C50.45 39.9901 51.99 39.7501 53 38.7701L57.75 34.2201C58.42 33.5701 58.7901 32.6701 58.7701 31.7601C58.7501 30.8301 58.3401 29.9601 57.6101 29.3101L57.17 28.9201L57.2401 28.8301L61.09 23.9401H67.42C70.7 23.9401 73.37 21.2701 73.37 17.9901V12.5501H73.34ZM33.3601 25.4301C33.3601 23.1801 35.19 21.3501 37.44 21.3501C39.69 21.3501 41.5201 23.1801 41.5201 25.4301C41.5201 27.6801 39.69 29.5101 37.44 29.5101C35.19 29.5101 33.3601 27.6801 33.3601 25.4301ZM12.19 25.4301C12.19 23.1801 14.02 21.3501 16.27 21.3501C18.52 21.3501 20.35 23.1801 20.35 25.4301C20.35 27.6801 18.52 29.5101 16.27 29.5101C14.02 29.5101 12.19 27.6801 12.19 25.4301ZM22.13 69.4801C22.13 70.6201 20.95 71.9901 19.48 71.9901C18.1 71.9901 16.97 70.8601 16.97 69.4801V57.2501C16.97 56.8601 16.65 56.5501 16.27 56.5501C15.89 56.5501 15.57 56.8701 15.57 57.2501V69.4801C15.57 70.8701 14.44 72.0001 13.06 72.0001C11.67 72.0001 10.55 70.8701 10.55 69.4901V52.7601L10.98 52.6201C12.05 52.2801 12.81 51.5201 13.13 50.4801L13.26 50.0401H22.14V69.4801H22.13ZM27.8 34.8801L27.72 35.4101H24.73C23.3 35.4101 22.13 36.5801 22.13 38.0101V48.6301H13.25V40.5201C13.25 40.1301 12.93 39.8201 12.55 39.8201C12.17 39.8201 11.85 40.1401 11.85 40.5201V49.5301C11.85 50.0401 11.67 50.4901 11.32 50.8301C10.95 51.2001 10.42 51.4001 9.84005 51.4001H9.80005C8.78005 51.3901 7.95005 50.5201 7.95005 49.4601V35.8401C7.95005 33.1201 10.16 30.9101 12.88 30.9101H29.88L29.08 31.9201C28.41 32.7801 27.96 33.8001 27.8 34.8801ZM43.3 69.4801C43.3 70.6201 42.1201 71.9901 40.6501 71.9901C39.2701 71.9901 38.14 70.8601 38.14 69.4801V57.2501C38.14 56.8601 37.82 56.5501 37.44 56.5501C37.06 56.5501 36.7401 56.8701 36.7401 57.2501V69.4801C36.7401 70.8701 35.61 72.0001 34.23 72.0001C32.84 72.0001 31.72 70.8701 31.72 69.4901V52.7501L32.1301 52.6001C33.1001 52.2501 33.8501 51.4501 34.1501 50.4701L34.28 50.0301H43.3101V69.4801H43.3ZM56.75 33.2001L52 37.7501C51.41 38.3201 50.52 38.4601 49.78 38.1101L44.3301 35.4801C44.1601 35.3901 43.9601 35.3801 43.7901 35.4401C43.6001 35.5001 43.46 35.6301 43.37 35.8001L43.3301 35.8901C43.2901 36.0901 43.3 37.3201 43.3 39.9401C43.3 41.7301 43.31 44.3001 43.3 48.0001V48.6201H34.28V40.5101C34.28 40.1201 33.9601 39.8101 33.5801 39.8101C33.1901 39.8101 32.8801 40.1301 32.8801 40.5101V49.5201C32.8801 50.5601 32.05 51.3801 31 51.3901C29.97 51.3801 29.14 50.5101 29.14 49.4501V35.8401C29.14 33.1201 31.35 30.9101 34.07 30.9101H42.48C43.39 30.9101 44.2501 31.1101 45.1101 31.5101L49.8301 33.7901C50.0901 33.9201 50.41 33.8701 50.62 33.6701C52.1 32.2701 53.0101 31.4201 53.5801 30.9201L53.64 30.8401L54.05 30.4401C54.47 30.0301 54.98 29.8301 55.51 29.8601C55.98 29.8901 56.44 30.1101 56.78 30.4501C57.42 31.1401 57.64 32.3301 56.75 33.2001ZM71.93 17.9801C71.93 20.4801 69.89 22.5201 67.39 22.5201H60.7201C60.5001 22.5201 60.3 22.6201 60.17 22.7901L56 28.0901L55.9001 27.9701L51.84 22.8001C51.71 22.6301 51.5001 22.5301 51.2901 22.5301C48.7901 22.5301 46.75 20.4901 46.75 17.9901V12.5601C46.75 10.0601 48.7901 8.0201 51.2901 8.0201H67.4001C69.9001 8.0201 71.94 10.0601 71.94 12.5601V17.9801H71.93Z" fill="#434343"/>
<path d="M67.4001 11.9402H51.3801C50.9901 11.9402 50.6801 12.2602 50.6801 12.6402C50.6801 13.0202 51.0001 13.3402 51.3801 13.3402H67.4001C67.7901 13.3402 68.1001 13.0202 68.1001 12.6402C68.1001 12.2602 67.7801 11.9402 67.4001 11.9402Z" fill="#434343"/>
<path d="M67.4001 17.28H51.3801C50.9901 17.28 50.6801 17.6 50.6801 17.98C50.6801 18.36 51.0001 18.68 51.3801 18.68H67.4001C67.7901 18.68 68.1001 18.36 68.1001 17.98C68.1001 17.6 67.7801 17.28 67.4001 17.28Z" fill="#434343"/>
</svg>
