<svg width="45" height="45" viewBox="0 0 45 45" fill="none" xmlns="http://www.w3.org/2000/svg">
<circle cx="22.5" cy="22.5" r="22.5" fill="#3FA8AE"/>
<path d="M15.5762 35.8179L9.30719 29.5479C9.21013 29.4556 9.13283 29.3445 9.08002 29.2214C9.02721 29.0983 9 28.9658 9 28.8319C9 28.6979 9.02721 28.5654 9.08002 28.4423C9.13283 28.3192 9.21013 28.2082 9.30719 28.1159L15.5762 21.8459C15.7618 21.6602 16.0136 21.5559 16.2762 21.5559C16.5387 21.5559 16.7905 21.6602 16.9762 21.8459C17.1618 22.0315 17.2661 22.2833 17.2661 22.5459C17.2661 22.8084 17.1618 23.0602 16.9762 23.2458L12.3762 27.8459H26.7562C27.0182 27.8459 27.2695 27.95 27.4548 28.1352C27.6401 28.3205 27.7442 28.5718 27.7442 28.8339C27.7442 29.0959 27.6401 29.3472 27.4548 29.5325C27.2695 29.7178 27.0182 29.8219 26.7562 29.8219H12.3762L16.9762 34.4219C17.1618 34.6075 17.2661 34.8593 17.2661 35.1219C17.2661 35.3844 17.1618 35.6362 16.9762 35.8219C16.7905 36.0075 16.5387 36.1118 16.2762 36.1118C16.0136 36.1118 15.7618 36.0075 15.5762 35.8219V35.8179Z" fill="white"/>
<path d="M29.168 8.29396L35.437 14.564C35.534 14.6563 35.6113 14.7673 35.6641 14.8904C35.7169 15.0135 35.7441 15.146 35.7441 15.28C35.7441 15.4139 35.7169 15.5464 35.6641 15.6695C35.6113 15.7926 35.534 15.9037 35.437 15.996L29.168 22.266C28.9823 22.4516 28.7305 22.5559 28.468 22.5559C28.2054 22.5559 27.9536 22.4516 27.7679 22.266C27.5823 22.0803 27.478 21.8285 27.478 21.566C27.478 21.3034 27.5823 21.0516 27.7679 20.866L32.368 16.266L17.988 16.266C17.7259 16.266 17.4746 16.1619 17.2893 15.9766C17.104 15.7913 16.9999 15.54 16.9999 15.278C16.9999 15.0159 17.104 14.7646 17.2893 14.5793C17.4746 14.3941 17.7259 14.29 17.988 14.29L32.368 14.29L27.7679 9.68996C27.5823 9.5043 27.478 9.25251 27.478 8.98996C27.478 8.72741 27.5823 8.47561 27.7679 8.28996C27.9536 8.10431 28.2054 8.00001 28.468 8.00001C28.7305 8.00001 28.9823 8.10431 29.168 8.28996L29.168 8.29396Z" fill="white"/>
</svg>
