<svg width="23" height="22" viewBox="0 0 23 22" fill="none" xmlns="http://www.w3.org/2000/svg">
<path d="M17.216 12.9817V7.98166C17.1871 6.38798 16.5337 4.86933 15.3964 3.7525C14.2592 2.63568 12.7289 2.00995 11.135 2.00995C9.54103 2.00995 8.0108 2.63568 6.87354 3.7525C5.73627 4.86933 5.08289 6.38798 5.05399 7.98166V12.9817C5.05495 13.6847 4.86783 14.3753 4.51199 14.9817H17.759C17.4028 14.3754 17.2154 13.6848 17.216 12.9817ZM21.27 16.9817H1C0.734784 16.9817 0.480414 16.8763 0.292877 16.6888C0.105341 16.5012 0 16.2469 0 15.9817C0 15.7164 0.105341 15.4621 0.292877 15.2746C0.480414 15.087 0.734784 14.9817 1 14.9817C1.53398 14.9851 2.04744 14.7764 2.42755 14.4013C2.80766 14.0263 3.02328 13.5156 3.02698 12.9817V7.98166C3.06041 5.85334 3.92935 3.8235 5.44626 2.33023C6.96317 0.83696 9.0064 0 11.135 0C13.2636 0 15.3068 0.83696 16.8237 2.33023C18.3406 3.8235 19.2096 5.85334 19.243 7.98166V12.9817C19.2467 13.5156 19.4623 14.0263 19.8424 14.4013C20.2225 14.7764 20.736 14.9851 21.27 14.9817C21.5352 14.9817 21.7895 15.087 21.9771 15.2746C22.1646 15.4621 22.27 15.7164 22.27 15.9817C22.27 16.2469 22.1646 16.5012 21.9771 16.6888C21.7895 16.8763 21.5352 16.9817 21.27 16.9817ZM13.765 20.4817C13.4937 20.9373 13.1086 21.3146 12.6476 21.5767C12.1865 21.8387 11.6653 21.9765 11.135 21.9765C10.6047 21.9765 10.0834 21.8387 9.62241 21.5767C9.16136 21.3146 8.77631 20.9373 8.50497 20.4817C8.41673 20.3288 8.37049 20.1554 8.37097 19.9789C8.37145 19.8024 8.41862 19.6292 8.50769 19.4769C8.59676 19.3245 8.72459 19.1985 8.87814 19.1115C9.0317 19.0245 9.20552 18.9797 9.38199 18.9817H12.889C13.0654 18.9799 13.2391 19.0248 13.3925 19.1119C13.5459 19.1989 13.6736 19.325 13.7625 19.4773C13.8515 19.6296 13.8986 19.8028 13.899 19.9792C13.8994 20.1555 13.8532 20.3289 13.765 20.4817Z" fill="#C7F0F2"/>
</svg>
