<svg width="12" height="13" viewBox="0 0 12 13" fill="none" xmlns="http://www.w3.org/2000/svg">
<path d="M1.8 13C1.32261 13 0.864763 12.8132 0.527197 12.4808C0.189632 12.1483 0 11.6974 0 11.2273V2.95455C0 2.48439 0.189632 2.0335 0.527197 1.70105C0.864763 1.36859 1.32261 1.18182 1.8 1.18182H3V0.590909C3 0.43419 3.06322 0.283899 3.17574 0.173082C3.28827 0.0622649 3.44087 0 3.6 0C3.75913 0 3.91173 0.0622649 4.02426 0.173082C4.13678 0.283899 4.2 0.43419 4.2 0.590909V1.18182H7.8V0.590909C7.8 0.43419 7.86322 0.283899 7.97574 0.173082C8.08827 0.0622649 8.24087 0 8.4 0C8.55913 0 8.71173 0.0622649 8.82426 0.173082C8.93678 0.283899 9 0.43419 9 0.590909V1.18182H10.2C10.6774 1.18182 11.1352 1.36859 11.4728 1.70105C11.8104 2.0335 12 2.48439 12 2.95455V11.2273C12 11.6974 11.8104 12.1483 11.4728 12.4808C11.1352 12.8132 10.6774 13 10.2 13H1.8ZM1.2 11.2273C1.2 11.384 1.26322 11.5343 1.37574 11.6451C1.48827 11.7559 1.64087 11.8182 1.8 11.8182H10.2C10.3591 11.8182 10.5117 11.7559 10.6243 11.6451C10.7368 11.5343 10.8 11.384 10.8 11.2273V5.90909H1.2V11.2273ZM10.8 4.72727V2.95455C10.8 2.79783 10.7368 2.64754 10.6243 2.53672C10.5117 2.4259 10.3591 2.36364 10.2 2.36364H9V2.95455C9 3.11126 8.93678 3.26156 8.82426 3.37237C8.71173 3.48319 8.55913 3.54545 8.4 3.54545C8.24087 3.54545 8.08827 3.48319 7.97574 3.37237C7.86322 3.26156 7.8 3.11126 7.8 2.95455V2.36364H4.2V2.95455C4.2 3.11126 4.13678 3.26156 4.02426 3.37237C3.91173 3.48319 3.75913 3.54545 3.6 3.54545C3.44087 3.54545 3.28827 3.48319 3.17574 3.37237C3.06322 3.26156 3 3.11126 3 2.95455V2.36364H1.8C1.64087 2.36364 1.48827 2.4259 1.37574 2.53672C1.26322 2.64754 1.2 2.79783 1.2 2.95455V4.72727H10.8Z" fill="#C3C3C3"/>
</svg>
