<svg width="20" height="22" viewBox="0 0 20 22" fill="none" xmlns="http://www.w3.org/2000/svg">
<path d="M3 22C2.20435 22 1.44127 21.6839 0.878662 21.1213C0.316053 20.5587 0 19.7956 0 19V5C0 4.20435 0.316053 3.4413 0.878662 2.87869C1.44127 2.31608 2.20435 2 3 2H5V1C5 0.734784 5.10537 0.480444 5.29291 0.292908C5.48044 0.105371 5.73478 0 6 0C6.26522 0 6.51956 0.105371 6.70709 0.292908C6.89463 0.480444 7 0.734784 7 1V2H13V1C13 0.734784 13.1054 0.480444 13.2929 0.292908C13.4804 0.105371 13.7348 0 14 0C14.2652 0 14.5196 0.105371 14.7071 0.292908C14.8946 0.480444 15 0.734784 15 1V2H17C17.7956 2 18.5587 2.31608 19.1213 2.87869C19.6839 3.4413 20 4.20435 20 5V19C20 19.7956 19.6839 20.5587 19.1213 21.1213C18.5587 21.6839 17.7956 22 17 22H3ZM2 19C2 19.2652 2.10537 19.5196 2.29291 19.7071C2.48044 19.8946 2.73478 20 3 20H17C17.2652 20 17.5196 19.8946 17.7071 19.7071C17.8946 19.5196 18 19.2652 18 19V10H2V19ZM18 8V5C18 4.73478 17.8946 4.48044 17.7071 4.29291C17.5196 4.10537 17.2652 4 17 4H15V5C15 5.26522 14.8946 5.51956 14.7071 5.70709C14.5196 5.89463 14.2652 6 14 6C13.7348 6 13.4804 5.89463 13.2929 5.70709C13.1054 5.51956 13 5.26522 13 5V4H7V5C7 5.26522 6.89463 5.51956 6.70709 5.70709C6.51956 5.89463 6.26522 6 6 6C5.73478 6 5.48044 5.89463 5.29291 5.70709C5.10537 5.51956 5 5.26522 5 5V4H3C2.73478 4 2.48044 4.10537 2.29291 4.29291C2.10537 4.48044 2 4.73478 2 5V8H18Z" fill="#EE6653"/>
</svg>
