<svg width="60" height="60" viewBox="0 0 60 60" fill="none" xmlns="http://www.w3.org/2000/svg">
<path d="M44 0H16C7.16344 0 0 7.16344 0 16V44C0 52.8366 7.16344 60 16 60H44C52.8366 60 60 52.8366 60 44V16C60 7.16344 52.8366 0 44 0Z" fill="#EE6653"/>
<path d="M21 38.0727V27.2447C21 26.7326 21.4253 26.3175 21.95 26.3175H23.807C24.1299 26.3175 24.4307 26.1574 24.6056 25.8924L26.8944 22.425C27.0693 22.1601 27.3701 22 27.6931 22H33.3069C33.6299 22 33.9306 22.1601 34.1056 22.425L36.3944 25.8924C36.5694 26.1574 36.8701 26.3175 37.1931 26.3175H39.05C39.5747 26.3175 40 26.7326 40 27.2447V38.0727C40 38.5849 39.5747 39 39.05 39H21.95C21.4253 39 21 38.5849 21 38.0727Z" stroke="white" stroke-width="2" stroke-linecap="round" stroke-linejoin="round"/>
<path d="M30 34C31.6569 34 33 32.6569 33 31C33 29.3431 31.6569 28 30 28C28.3431 28 27 29.3431 27 31C27 32.6569 28.3431 34 30 34Z" stroke="white" stroke-width="2" stroke-linecap="round" stroke-linejoin="round"/>
</svg>
