<svg width="21" height="19" viewBox="0 0 21 19" fill="none" xmlns="http://www.w3.org/2000/svg">
<path d="M1 17.0727V6.24473C1 5.73261 1.42533 5.31746 1.95 5.31746H3.80698C4.12989 5.31746 4.43067 5.15737 4.60557 4.89243L6.89443 1.42503C7.06933 1.16009 7.37007 1 7.69307 1H13.3069C13.6299 1 13.9306 1.16009 14.1056 1.42503L16.3944 4.89243C16.5694 5.15737 16.8701 5.31746 17.1931 5.31746H19.05C19.5747 5.31746 20 5.73261 20 6.24473V17.0727C20 17.5849 19.5747 18 19.05 18H1.95C1.42533 18 1 17.5849 1 17.0727Z" stroke="#EE6653" stroke-width="2" stroke-linecap="round" stroke-linejoin="round"/>
<path d="M10 13C11.6569 13 13 11.6569 13 10C13 8.3431 11.6569 7 10 7C8.3431 7 7 8.3431 7 10C7 11.6569 8.3431 13 10 13Z" stroke="#EE6653" stroke-width="2" stroke-linecap="round" stroke-linejoin="round"/>
</svg>
