<svg width="12" height="12" viewBox="0 0 12 12" fill="none" xmlns="http://www.w3.org/2000/svg">
<path d="M0 6C0 4.81331 0.351887 3.65328 1.01118 2.66658C1.67046 1.67989 2.60753 0.910844 3.70389 0.456718C4.80025 0.00259277 6.00666 -0.116218 7.17054 0.115293C8.33443 0.346805 9.40354 0.918251 10.2427 1.75737C11.0818 2.59648 11.6532 3.66557 11.8847 4.82946C12.1162 5.99334 11.9974 7.19974 11.5433 8.29609C11.0891 9.39245 10.3201 10.3295 9.33342 10.9888C8.34672 11.6481 7.18669 12 6 12C4.4087 12 2.88257 11.3679 1.75735 10.2426C0.632128 9.11742 0 7.5913 0 6ZM1.09091 6C1.09091 6.97093 1.37883 7.92004 1.91825 8.72734C2.45766 9.53464 3.22435 10.1638 4.12137 10.5354C5.01839 10.907 6.00544 11.0042 6.95771 10.8148C7.90998 10.6253 8.7847 10.1578 9.47125 9.47125C10.1578 8.7847 10.6254 7.90998 10.8148 6.95771C11.0042 6.00544 10.907 5.01839 10.5354 4.12137C10.1639 3.22435 9.53464 2.45767 8.72734 1.91825C7.92004 1.37883 6.97093 1.09091 6 1.09091C4.69803 1.09091 3.44939 1.60812 2.52875 2.52876C1.60812 3.44939 1.09091 4.69803 1.09091 6ZM7.25074 8.022L5.61438 6.38564C5.51208 6.28337 5.45458 6.14465 5.45455 6V2.72728C5.45455 2.58261 5.51202 2.44388 5.61431 2.34159C5.71661 2.2393 5.85534 2.18182 6 2.18182C6.14466 2.18182 6.28339 2.2393 6.38569 2.34159C6.48798 2.44388 6.54546 2.58261 6.54546 2.72728V5.77418L8.02199 7.25018C8.12433 7.35246 8.18187 7.49121 8.18192 7.6359C8.18197 7.78059 8.12456 7.91939 8.02228 8.02174C7.92001 8.12408 7.78126 8.1816 7.63656 8.18165C7.49187 8.1817 7.35309 8.12428 7.25074 8.022Z" fill="#C3C3C3"/>
</svg>
