<svg width="12" height="12" viewBox="0 0 12 12" fill="none" xmlns="http://www.w3.org/2000/svg">
<path d="M10.2419 11.6559L5.99992 7.41392L1.75687 11.6559C1.56827 11.8381 1.3157 11.9389 1.0535 11.9366C0.791308 11.9343 0.540548 11.8291 0.35514 11.6437C0.169732 11.4583 0.064572 11.2075 0.0622936 10.9453C0.0600151 10.6831 0.160775 10.4305 0.342933 10.2419L4.58598 5.99891L0.342933 1.75591C0.247423 1.66367 0.171221 1.55333 0.118812 1.43133C0.0664031 1.30932 0.0387892 1.17809 0.0376354 1.04531C0.0364815 0.912531 0.0618174 0.780863 0.112098 0.657966C0.162379 0.53507 0.236589 0.423413 0.330482 0.329521C0.424375 0.235628 0.536077 0.161372 0.658973 0.111091C0.78187 0.0608103 0.913523 0.035505 1.0463 0.0366588C1.17908 0.0378127 1.31028 0.0654113 1.43229 0.11782C1.55429 0.170229 1.66463 0.246401 1.75687 0.341911L5.99992 4.58392L10.2419 0.341911C10.3347 0.249001 10.445 0.175285 10.5663 0.124977C10.6877 0.0746689 10.8177 0.0487597 10.949 0.0487133C11.0804 0.0486668 11.2105 0.0744953 11.3318 0.124717C11.4532 0.174939 11.5635 0.248578 11.6564 0.341423C11.7493 0.434267 11.823 0.544492 11.8733 0.665824C11.9236 0.787157 11.9496 0.917212 11.9496 1.04856C11.9497 1.17991 11.9238 1.30997 11.8736 1.43134C11.8234 1.55271 11.7497 1.663 11.6569 1.75591L7.41386 5.99992L11.6569 10.2429C11.8444 10.4306 11.9497 10.685 11.9496 10.9503C11.9495 11.2155 11.8441 11.4699 11.6564 11.6574C11.4688 11.8449 11.2143 11.9502 10.949 11.9501C10.6837 11.95 10.4294 11.8446 10.2419 11.6569V11.6559Z" fill="#434343"/>
</svg>
