<svg width="14" height="14" viewBox="0 0 14 14" fill="none" xmlns="http://www.w3.org/2000/svg">
<path d="M11.9914 13.6543L7.00655 8.66934L2.02039 13.6543C1.79875 13.8683 1.50195 13.9868 1.19383 13.9841C0.885714 13.9814 0.591037 13.8578 0.373156 13.64C0.155276 13.4221 0.0316986 13.1273 0.0290211 12.8192C0.0263437 12.5111 0.144751 12.2143 0.358812 11.9926L5.34497 7.00651L0.358812 2.02041C0.246574 1.912 0.157026 1.78234 0.0954382 1.63897C0.0338504 1.4956 0.00140021 1.34138 4.4313e-05 1.18535C-0.00131158 1.02932 0.0284615 0.874587 0.0875485 0.730166C0.146636 0.585746 0.233843 0.454535 0.34418 0.344198C0.454517 0.233861 0.585782 0.1466 0.730202 0.0875127C0.874623 0.0284257 1.02933 -0.00131153 1.18537 4.43635e-05C1.3414 0.00140026 1.49558 0.0338325 1.63895 0.0954204C1.78233 0.157008 1.91198 0.24652 2.02039 0.358758L7.00655 5.3437L11.9914 0.358758C12.1005 0.249575 12.2301 0.162949 12.3727 0.10383C12.5153 0.0447115 12.6681 0.0142646 12.8224 0.01421C12.9768 0.0141554 13.1297 0.0445075 13.2723 0.103525C13.4149 0.162543 13.5445 0.249079 13.6537 0.358184C13.7629 0.467289 13.8495 0.596819 13.9086 0.739401C13.9677 0.881983 13.9982 1.03482 13.9983 1.18917C13.9983 1.34352 13.9679 1.49637 13.9089 1.63899C13.8499 1.78161 13.7634 1.91122 13.6543 2.02041L8.66812 7.0077L13.6543 11.9938C13.8746 12.2143 13.9984 12.5133 13.9983 12.825C13.9982 13.1368 13.8742 13.4357 13.6537 13.656C13.4332 13.8764 13.1342 14.0001 12.8224 14C12.5107 13.9999 12.2118 13.876 11.9914 13.6555V13.6543Z" fill="#EE6653"/>
</svg>
