<svg width="80" height="80" viewBox="0 0 80 80" fill="none" xmlns="http://www.w3.org/2000/svg">
<path d="M25.3799 51.53C27.6399 51.53 29.4699 53.36 29.4699 55.62V65.1C29.4699 67.36 27.6399 69.19 25.3799 69.19H9.26993C7.00993 69.19 5.17993 67.35 5.17993 65.1V55.62C5.17993 53.36 7.00993 51.53 9.26993 51.53H20.8499C21.0299 51.53 21.2099 51.47 21.3599 51.36L24.2399 49.23V50.67C24.2399 51.14 24.6199 51.52 25.0899 51.52H25.3799V51.53Z" fill="#EE6653"/>
<path d="M57.6199 32.16C55.3599 32.16 53.5299 30.33 53.5299 28.07V18.59C53.5299 16.33 55.3599 14.5 57.6199 14.5H73.7199C75.9799 14.5 77.8099 16.34 77.8099 18.59V28.07C77.8099 30.33 75.9799 32.16 73.7199 32.16H62.1399C61.9599 32.16 61.7799 32.22 61.6299 32.33L58.7499 34.46V33.02C58.7499 32.55 58.3699 32.17 57.8999 32.17H57.6199V32.16Z" fill="#EE6653"/>
<path d="M8.90994 54.6101C8.43994 54.6101 8.05994 54.9901 8.05994 55.4601C8.05994 55.9301 8.43994 56.3101 8.90994 56.3101H22.6799C23.1499 56.3101 23.5299 55.9301 23.5299 55.4601C23.5299 54.9901 23.1499 54.6101 22.6799 54.6101H8.90994Z" fill="#434343"/>
<path d="M16.5699 60.04H8.90994C8.43994 60.04 8.05994 60.42 8.05994 60.9C8.05994 61.37 8.43994 61.75 8.90994 61.75H16.5799C17.0499 61.75 17.4299 61.37 17.4299 60.9C17.4299 60.42 17.0399 60.04 16.5699 60.04Z" fill="#434343"/>
<path d="M63.6799 32.8801H61.9699C62.5199 34.6001 62.8699 36.3801 62.9999 38.2101L63.0599 39.0601H52.8099L52.7799 38.3101C52.6799 35.9101 52.3899 33.6201 51.9499 31.4301C50.3399 30.1801 49.3199 28.2501 49.3199 26.0801V23.3601C48.5499 21.8001 47.6799 20.4301 46.7099 19.3001L44.8099 17.0801L47.5699 18.0501C48.1699 18.2601 48.7499 18.5101 49.3199 18.7701V16.9801C46.3799 15.7701 43.2099 15.1201 39.9799 15.1201C36.3299 15.1201 32.7799 15.9301 29.4299 17.5201C29.2499 17.6001 29.0799 17.6901 28.9099 17.7701C28.5099 17.9701 28.1099 18.1801 27.7199 18.4101C27.3299 18.6301 26.9599 18.8601 26.5899 19.1001L26.4099 19.2201C26.2699 19.3101 26.1299 19.4001 25.9899 19.5001C19.2199 24.1101 15.1799 31.7501 15.1799 39.9201C15.1799 42.3301 15.5299 44.6501 16.1799 46.8501H17.9099C17.3599 45.1101 17.0099 43.3001 16.8799 41.4401L16.8199 40.6001H27.1599L27.1799 41.3701C27.2299 43.7001 27.4499 45.9501 27.8199 48.1201C28.6399 48.7101 29.3299 49.4501 29.8199 50.3301C29.1599 47.5201 28.7599 44.4701 28.6899 41.4001L28.6699 40.6001H39.2199V51.1601L38.4599 51.1801C35.8999 51.2601 33.3899 51.5501 30.9899 52.0301L30.4799 52.1301C30.5899 52.6201 30.6699 53.1201 30.6699 53.6501V57.4401C31.1499 58.4301 31.6699 59.3401 32.2299 60.1601L33.7099 62.3201L31.2899 61.3401C31.0799 61.2501 30.8799 61.1501 30.6699 61.0601V62.8501C33.5199 64.0001 36.6299 64.6401 39.8899 64.6401C43.5399 64.6401 47.0899 63.8301 50.4399 62.2401C50.6199 62.1601 50.7899 62.0701 50.9599 61.9901C51.3599 61.7901 51.7599 61.5801 52.1499 61.3501C52.5399 61.1301 52.9099 60.9001 53.2799 60.6601L53.4499 60.5501C53.5899 60.4601 53.7399 60.3701 53.8799 60.2701C55.4499 59.2001 56.9099 57.9301 58.2099 56.5101L58.3099 56.4101C62.4199 51.8601 64.6899 45.9801 64.6899 39.8601C64.6899 37.4501 64.3399 35.1201 63.6799 32.8801ZM39.2299 17.1701V26.9701L38.4199 26.9401C36.2499 26.8701 34.1199 26.6401 32.0899 26.2801L31.1099 26.1001L31.4999 25.1901C31.6999 24.7201 31.9099 24.2501 32.1299 23.8001C33.7799 20.5201 35.9299 18.2901 38.1799 17.5201L39.2299 17.1701ZM24.3299 22.7701C25.1499 22.0201 25.9999 21.3401 26.8399 20.7501C27.0199 20.6301 27.2099 20.5101 27.3899 20.3901C27.7599 20.1501 28.0899 19.9501 28.4299 19.7501C28.8299 19.5201 29.2299 19.3101 29.6399 19.1001L30.0099 18.9201C30.7899 18.5601 31.6199 18.2201 32.4999 17.9301L35.2499 17.0001L33.3499 19.1901C31.9999 20.7401 30.8299 22.7301 29.8599 25.1101L29.5999 25.7501L28.9299 25.5701C27.3299 25.1401 25.8599 24.6301 24.5499 24.0501L23.4499 23.5601L24.3299 22.7701ZM27.1999 38.3101L27.1699 39.0601H16.8099L16.8699 38.2201C17.1999 33.4501 18.9799 28.9501 22.0199 25.2201L22.4199 24.7401L22.9799 25.0101C24.5699 25.7901 26.3599 26.4501 28.3199 26.9901L29.0999 27.2001L28.8699 27.9701C27.9099 31.1401 27.3499 34.6201 27.1999 38.3101ZM28.6899 39.0601L28.7299 38.2401C28.8899 34.6801 29.4499 31.3101 30.3899 28.2401L30.5999 27.5601L31.2899 27.6901C33.5899 28.1301 35.9999 28.4001 38.4599 28.4801L39.2199 28.5001V39.0601H28.6899ZM38.3899 63.0301C38.0099 63.0001 37.6299 62.9701 37.2599 62.9201L36.9399 62.8801L36.7399 62.6301C36.6799 62.5601 36.6299 62.5101 36.5799 62.4701C34.3899 61.0201 32.4899 58.2601 31.0599 54.5001L30.7299 53.6201L31.6499 53.4401C33.8199 53.0201 36.0999 52.7701 38.4099 52.7001L39.2199 52.6701V62.2001L39.2599 63.0801L38.3899 63.0301ZM40.7499 17.1701L41.7899 17.5301C44.0399 18.3001 46.1899 20.5301 47.8399 23.8101C48.0599 24.2501 48.2699 24.7201 48.4699 25.2001L48.8599 26.1101L47.8799 26.2901C45.8399 26.6601 43.7099 26.8801 41.5499 26.9501L40.7399 26.9801V17.1701H40.7499ZM40.7499 28.5101L41.5099 28.4901C43.9699 28.4101 46.3799 28.1501 48.6799 27.7001L49.3699 27.5701L49.5799 28.2501C50.5199 31.3301 51.0799 34.6901 51.2399 38.2501L51.2799 39.0701H40.7499V28.5101ZM40.7499 40.5901H51.2999L51.2799 41.3901C51.2099 44.9801 50.7499 48.3701 49.9099 51.4501L49.7199 52.1601L48.9999 52.0201C46.5899 51.5401 44.0699 51.2501 41.5099 51.1701L40.7499 51.1501V40.5901ZM42.9899 62.7301L42.7599 62.8901L42.5699 62.9101C42.2499 62.9501 41.9299 62.9801 41.5999 63.0101L40.7499 63.0801V52.6701L41.5599 52.7001C43.8799 52.7801 46.1599 53.0301 48.3399 53.4501L49.2599 53.6301L48.8799 54.6501C47.3799 58.5301 45.2899 61.4001 42.9899 62.7301ZM55.6399 56.8801C54.7899 57.6701 53.9099 58.3801 53.0399 58.9801C52.8399 59.1101 52.6399 59.2401 52.4399 59.3701C52.1199 59.5801 51.7799 59.7801 51.4399 59.9801C51.0399 60.2101 50.6399 60.4201 50.2299 60.6301L49.8599 60.8101C49.4699 60.9901 49.0799 61.1601 48.6899 61.3201L46.2499 62.3101L47.7399 60.1401C48.7999 58.6001 49.7299 56.7601 50.4899 54.6701L50.7399 53.9801L51.4399 54.1801C52.8499 54.5801 54.1899 55.0501 55.4099 55.5901L56.5099 56.0701L55.6399 56.8801ZM63.0199 41.4301C62.7099 46.1901 60.9499 50.6801 57.9399 54.4201L57.5499 54.9101L56.9899 54.6301C55.4799 53.8901 53.7899 53.2601 51.9499 52.7301L51.1999 52.5201L51.3999 51.7701C52.2599 48.5601 52.7299 45.0501 52.7999 41.3601L52.8199 40.5901H63.0799L63.0199 41.4301Z" fill="#434343"/>
<path d="M23.09 44.87L19.07 47.84H7.77998C4.57998 47.84 1.97998 50.44 1.97998 53.64V63.12C1.97998 66.32 4.57998 68.92 7.77998 68.92H23.88C27.08 68.92 29.68 66.32 29.68 63.12V53.64C29.68 50.81 27.66 48.41 24.87 47.93L24.45 47.86V45.57C24.45 45.25 24.27 44.95 23.98 44.81C23.7 44.65 23.35 44.68 23.09 44.87ZM23.88 49.54C26.14 49.54 27.97 51.37 27.97 53.63V63.11C27.97 65.37 26.14 67.2 23.88 67.2H7.77998C5.51998 67.2 3.68998 65.36 3.68998 63.11V53.63C3.68998 51.37 5.51998 49.54 7.77998 49.54H19.36C19.54 49.54 19.72 49.48 19.87 49.37L22.75 47.24V48.68C22.75 49.15 23.13 49.53 23.6 49.53H23.88V49.54Z" fill="#434343"/>
<path d="M56.91 34.85L60.93 31.88H72.23C75.43 31.88 78.03 29.28 78.03 26.08V16.6C78.03 13.4 75.43 10.8 72.23 10.8H56.13C52.93 10.8 50.33 13.4 50.33 16.6V26.08C50.33 28.91 52.35 31.3101 55.14 31.7901L55.56 31.8601V34.1501C55.56 34.4701 55.74 34.77 56.03 34.91C56.3 35.07 56.65 35.04 56.91 34.85ZM56.12 30.17C53.86 30.17 52.03 28.34 52.03 26.08V16.6C52.03 14.34 53.86 12.51 56.12 12.51H72.22C74.48 12.51 76.31 14.35 76.31 16.6V26.08C76.31 28.34 74.48 30.17 72.22 30.17H60.64C60.46 30.17 60.28 30.23 60.13 30.34L57.25 32.4701V31.03C57.25 30.56 56.87 30.18 56.4 30.18H56.12V30.17Z" fill="#434343"/>
<path d="M57.32 17.97C56.85 17.97 56.47 18.35 56.47 18.82C56.47 19.29 56.85 19.67 57.32 19.67H71.09C71.56 19.67 71.94 19.29 71.94 18.82C71.94 18.35 71.56 17.97 71.09 17.97H57.32Z" fill="#434343"/>
<path d="M67.9 23.4001H57.61C56.98 23.4001 56.46 23.6501 56.46 23.9601C56.46 24.2701 56.98 24.5201 57.61 24.5201H67.9C68.53 24.5201 69.05 24.2701 69.05 23.9601C69.05 23.6501 68.53 23.4001 67.9 23.4001Z" fill="#434343"/>
</svg>
