<svg width="80" height="80" viewBox="0 0 80 80" fill="none" xmlns="http://www.w3.org/2000/svg">
<path d="M72.55 15.8502C70.43 12.0202 66.51 9.72019 62.07 9.69019C55.42 9.69019 50.02 15.1202 50.02 21.8002C50.02 24.2202 50.67 26.6002 51.9 28.6902L61.98 45.8102L72.2 28.7302C74.63 24.7802 74.76 19.8402 72.55 15.8502ZM61.97 27.2602C59.45 27.2602 56.83 25.6302 56.68 22.0102C56.68 19.0902 59.05 16.7202 61.97 16.7202C64.89 16.7202 67.26 19.0702 67.26 21.9502C67.11 25.6202 64.5 27.2602 61.97 27.2602Z" fill="#EE6653"/>
<path d="M31.02 23.94C28.9 20.12 24.99 17.81 20.55 17.78C13.9 17.78 8.5 23.21 8.5 29.89C8.5 32.31 9.15 34.69 10.38 36.78L20.45 53.9L30.67 36.81C33.09 32.86 33.23 27.93 31.02 23.94ZM20.44 35.38C17.52 35.38 15.15 33.03 15.15 30.15C15.3 26.48 17.92 24.84 20.44 24.84C22.96 24.84 25.58 26.47 25.73 30.09C25.73 33.01 23.36 35.38 20.44 35.38Z" fill="#EE6653"/>
<path d="M19.1401 23.75C16.6201 23.75 14.0001 25.39 13.8501 29.06C13.8501 31.94 16.2201 34.29 19.1401 34.29C22.0601 34.29 24.4301 31.92 24.4301 29C24.2801 25.38 21.6601 23.75 19.1401 23.75ZM19.1401 32.75C17.3501 32.75 15.4801 31.48 15.3801 29.06C15.3801 28.03 15.7701 27.07 16.4801 26.35C17.1901 25.64 18.1301 25.24 19.1401 25.24C21.2101 25.24 22.9001 26.93 22.9001 29C22.8001 31.47 20.9301 32.75 19.1401 32.75Z" fill="#434343"/>
<path d="M19.14 55.0302C19.43 55.0302 19.67 54.9002 19.8 54.7002L30.69 36.5002C33.4 32.1002 33.53 26.5802 31.03 22.0902C28.62 17.7602 24.21 15.1702 19.25 15.1702C11.76 15.1702 5.67004 21.2602 5.67004 28.7502C5.67004 31.4802 6.39004 34.1402 7.76004 36.4702L18.48 54.7002C18.6 54.9102 18.85 55.0302 19.14 55.0302ZM9.06004 35.6902C7.83004 33.6002 7.18004 31.2202 7.18004 28.8002C7.18004 22.1202 12.59 16.6902 19.23 16.6902C23.67 16.7202 27.59 19.0202 29.7 22.8502C31.91 26.8402 31.78 31.7702 29.35 35.7202L19.14 52.8102L9.06004 35.6902Z" fill="#434343"/>
<path d="M60.67 26.1801C63.2 26.1801 65.81 24.5401 65.96 20.8701C65.96 17.9901 63.59 15.6401 60.67 15.6401C57.75 15.6401 55.38 18.0101 55.38 20.9301C55.54 24.5501 58.15 26.1801 60.67 26.1801ZM60.67 17.1801C62.46 17.1801 64.33 18.4501 64.43 20.8701C64.43 21.9001 64.04 22.8601 63.33 23.5801C62.62 24.2901 61.68 24.6901 60.67 24.6901C58.6 24.6901 56.91 23.0001 56.91 20.9301C57.01 18.4601 58.88 17.1801 60.67 17.1801Z" fill="#434343"/>
<path d="M72.5501 14.0001C70.1401 9.67008 65.7301 7.08008 60.7701 7.08008C53.2801 7.08008 47.1901 13.1701 47.1901 20.6601C47.1901 23.3901 47.9101 26.0601 49.2801 28.3801L60.0101 46.6101C60.1301 46.8201 60.3801 46.9401 60.6601 46.9401H60.7001C60.9701 46.9301 61.2001 46.8001 61.3201 46.6101L72.2001 28.4101C74.9301 24.0201 75.0601 18.4901 72.5501 14.0001ZM60.6801 44.7301L50.6001 27.6101C49.3701 25.5201 48.7201 23.1401 48.7201 20.7201C48.7201 14.0401 54.1301 8.61008 60.7701 8.61008C65.2101 8.64008 69.1201 10.9401 71.2501 14.7701C73.4601 18.7601 73.3201 23.6901 70.9001 27.6401L60.6801 44.7301Z" fill="#434343"/>
<path d="M66.0801 58.1101C66.0801 55.2001 63.7001 52.8201 60.7701 52.8201C58.3401 52.8201 56.2201 54.4701 55.6201 56.8301L55.4401 57.5601L55.2401 57.6201L24.5801 66.6101L24.1101 65.5501C22.8301 62.6701 20.3101 62.3601 19.2901 62.3601C18.9101 62.3601 18.5301 62.4001 18.1701 62.4701C16.2401 62.8601 13.9801 64.4601 13.9301 67.6501C14.0201 71.0901 16.5001 72.6101 18.5901 72.8701C20.8501 73.1401 23.5301 72.0201 24.3901 68.9101L24.5901 68.2001L24.7801 68.1401L55.4201 59.1601L55.8901 60.2201C57.1901 63.1301 59.9001 63.6901 61.8301 63.3001C63.7601 62.9001 66.0301 61.3101 66.0801 58.1101ZM21.9101 70.3101C21.2001 71.0301 20.2501 71.4201 19.2401 71.4201C17.1601 71.4201 15.4601 69.7201 15.4601 67.6401C15.5601 65.1601 17.4401 63.8701 19.2401 63.8701C21.0401 63.8701 22.9201 65.1401 23.0201 67.5801C23.0201 68.6301 22.6201 69.5901 21.9101 70.3101ZM63.4501 60.8001C62.7401 61.5201 61.7901 61.9101 60.7801 61.9101C58.7001 61.9101 57.0001 60.2101 57.0001 58.1301C57.1001 55.6501 58.9801 54.3601 60.7801 54.3601C62.5801 54.3601 64.4601 55.6301 64.5601 58.0701C64.5501 59.1101 64.1601 60.0801 63.4501 60.8001Z" fill="#434343"/>
</svg>
