<svg width="80" height="80" viewBox="0 0 80 80" fill="none" xmlns="http://www.w3.org/2000/svg">
<path d="M45.2601 52.76C45.1501 52.87 45.0801 52.99 45.0301 53.13L41.2201 56.9L35.9401 51.57C35.8701 51.5 35.7901 51.46 35.7101 51.42L19.9101 35.38C14.8201 30.24 14.8601 21.91 20.0101 16.82C25.1501 11.73 33.4801 11.77 38.5701 16.92L40.7001 19.08C40.8901 19.27 41.1401 19.38 41.4101 19.38C41.4101 19.38 41.4101 19.38 41.4201 19.38C41.6801 19.38 41.9401 19.28 42.1201 19.09L44.4001 16.83C49.5401 11.74 57.8701 11.78 62.9601 16.93C65.4301 19.42 66.7701 22.72 66.7601 26.23C66.7401 29.74 65.3601 33.02 62.8701 35.49L45.2601 52.76Z" fill="#EE6653"/>
<path d="M54.2 48.5999L47.11 40.1699C46.64 39.6099 45.94 39.2999 45.21 39.3399C44.48 39.3799 43.82 39.7399 43.4 40.3399C42.17 42.1199 42.1 44.4699 43.22 46.3299L44.99 49.2599L39.74 54.4499L34.6 49.2599L36.37 46.3299C37.49 44.4799 37.42 42.1199 36.19 40.3399C35.77 39.7399 35.11 39.3699 34.38 39.3399C33.63 39.3099 32.96 39.6099 32.48 40.1699L25.4 48.5999C25.27 48.7499 25.21 48.9399 25.23 49.1399C25.25 49.3399 25.34 49.5199 25.49 49.6399C25.64 49.7699 25.84 49.8299 26.03 49.8099C26.23 49.7899 26.41 49.6999 26.53 49.5499L33.62 41.1199C33.79 40.9099 34.04 40.8199 34.31 40.8199C34.47 40.8299 34.77 40.8899 34.98 41.1899C35.88 42.4999 35.93 44.2199 35.11 45.5699L29.69 54.5299C29.48 54.8799 29.59 55.3299 29.94 55.5499C30.28 55.7599 30.75 55.6399 30.95 55.2999L33.62 50.8799L35.72 55.4099C36.51 57.1199 36.93 59.0199 36.93 60.9099V70.2099C36.93 70.6199 37.26 70.9499 37.67 70.9499C38.08 70.9499 38.41 70.6199 38.41 70.2099V60.9099C38.41 58.8099 37.94 56.6999 37.06 54.7899L36.26 53.0499L39.21 56.0299C39.49 56.3099 39.98 56.3099 40.25 56.0299L43.37 52.9499L42.52 54.7799C41.64 56.6799 41.17 58.7999 41.17 60.8999V70.1999C41.17 70.6099 41.5 70.9399 41.91 70.9399C42.32 70.9399 42.65 70.6099 42.65 70.1999V60.8999C42.65 59.0099 43.07 57.1099 43.86 55.3999L45.95 50.8699L48.62 55.2899C48.82 55.6299 49.3 55.7399 49.63 55.5399C49.98 55.3299 50.09 54.8699 49.88 54.5299L44.46 45.5699C43.64 44.2099 43.69 42.4899 44.59 41.1899C44.8 40.8899 45.09 40.8299 45.25 40.8199C45.4 40.8199 45.71 40.8399 45.95 41.1199L53.04 49.5499C53.3 49.8599 53.77 49.8999 54.08 49.6399C54.42 49.3799 54.46 48.9199 54.2 48.5999Z" fill="#434343"/>
<path d="M53.79 70.3499C54.2 70.3499 54.53 70.0199 54.53 69.6099V63.6699C54.53 62.7899 54.89 61.9299 55.52 61.3099L58 58.8899C59.51 57.4099 60.51 55.5299 60.88 53.4399L62.47 44.6199C62.66 43.5899 62.68 42.5399 62.55 41.4999L61.68 34.8299L62.34 34.1699C68.09 28.4699 68.14 19.1599 62.45 13.3999C56.76 7.6499 47.44 7.5999 41.68 13.2899L39.95 14.9999L38.36 13.3999C32.66 7.6499 23.35 7.5999 17.59 13.2899C11.83 18.9899 11.79 28.2999 17.48 34.0599L18.01 34.5999L17.93 34.8199C17.92 34.8499 17.91 34.8699 17.9 34.8899L17.04 41.4999C16.9 42.5399 16.93 43.5799 17.12 44.6199L18.71 53.4399C19.09 55.5199 20.08 57.4099 21.59 58.8899L24.06 61.3199C24.69 61.9399 25.05 62.7999 25.05 63.6799V69.6199C25.05 70.0299 25.38 70.3599 25.79 70.3599C26.2 70.3599 26.53 70.0299 26.53 69.6199V63.6799C26.53 62.3999 26.01 61.1599 25.1 60.2599L22.63 57.8299C21.34 56.5599 20.49 54.9499 20.17 53.1699L18.58 44.3499C18.42 43.4699 18.4 42.5699 18.52 41.6899L19.28 35.8699L26.47 43.1399C26.76 43.4299 27.23 43.4299 27.52 43.1499C27.81 42.8599 27.81 42.3899 27.52 42.0999L18.54 33.0299C13.42 27.8499 13.46 19.4699 18.64 14.3499C23.82 9.2299 32.2 9.2699 37.32 14.4499L39.43 16.5799C39.57 16.7199 39.75 16.7999 39.95 16.7999C40.15 16.7999 40.33 16.7199 40.47 16.5899L42.73 14.3599C45.22 11.8999 48.51 10.5399 52.02 10.5399C52.04 10.5399 52.07 10.5399 52.09 10.5399C55.62 10.5599 58.93 11.9499 61.41 14.4499C63.89 16.9599 65.25 20.2799 65.23 23.8099C65.21 27.3399 63.82 30.6499 61.31 33.1299L52.17 42.1799C52.03 42.3199 51.95 42.4999 51.95 42.6999C51.95 42.8999 52.03 43.0799 52.16 43.2199C52.44 43.4999 52.92 43.4999 53.2 43.2299L60.36 36.1499L61.08 41.6999C61.2 42.5899 61.17 43.4799 61.01 44.3599L59.42 53.1799C59.1 54.9599 58.25 56.5699 56.96 57.8399L54.49 60.2699C53.58 61.1599 53.05 62.4099 53.05 63.6899V69.6299C53.05 70.0199 53.38 70.3499 53.79 70.3499Z" fill="#434343"/>
</svg>
