<svg width="19" height="19" viewBox="0 0 19 19" fill="none" xmlns="http://www.w3.org/2000/svg">
<path d="M3.55 12.3333C1.97634 12.9333 1 13.7694 1 14.6942C1 16.5199 4.80558 18 9.5 18C14.1944 18 18 16.5199 18 14.6942C18 13.7694 17.0237 12.9333 15.45 12.3333M9.5 6.66667H9.50944M15.1667 6.66667C15.1667 10.5046 10.9167 12.3333 9.5 15.1667C8.08333 12.3333 3.83333 10.5046 3.83333 6.66667C3.83333 3.53705 6.37039 1 9.5 1C12.6296 1 15.1667 3.53705 15.1667 6.66667ZM10.4444 6.66667C10.4444 7.18827 10.0216 7.61111 9.5 7.61111C8.9784 7.61111 8.55556 7.18827 8.55556 6.66667C8.55556 6.14506 8.9784 5.72222 9.5 5.72222C10.0216 5.72222 10.4444 6.14506 10.4444 6.66667Z" stroke="#EE6653" stroke-width="1.5" stroke-linecap="round" stroke-linejoin="round"/>
</svg>
