<svg width="40" height="40" viewBox="0 0 40 40" fill="none" xmlns="http://www.w3.org/2000/svg">
<circle cx="20" cy="20" r="20" fill="#EE6653"/>
<path fill-rule="evenodd" clip-rule="evenodd" d="M19.9333 14.726C18.3472 12.8875 15.6967 12.3193 13.7094 14.0028C11.7221 15.6864 11.4423 18.5011 13.0029 20.4922C14.3005 22.1477 18.2275 25.6392 19.5145 26.7693C19.6585 26.8957 19.7305 26.9589 19.8145 26.9837C19.8878 27.0054 19.968 27.0054 20.0413 26.9837C20.1253 26.9589 20.1973 26.8957 20.3413 26.7693C21.6283 25.6392 25.5553 22.1477 26.8529 20.4922C28.4135 18.5011 28.1679 15.6686 26.1464 14.0028C24.1249 12.337 21.5195 12.8875 19.9333 14.726Z" fill="white" stroke="white" stroke-width="2" stroke-linecap="round" stroke-linejoin="round"/>
</svg>
