<svg width="12" height="20" viewBox="0 0 12 20" fill="none" xmlns="http://www.w3.org/2000/svg">
<path d="M3.52221 10.0011L11.2376 2.44199C11.5124 2.17304 11.6667 1.80926 11.6667 1.43007C11.6667 1.05087 11.5124 0.687089 11.2376 0.418139C11.1027 0.285659 10.9422 0.180496 10.7653 0.108726C10.5884 0.0369556 10.3985 0 10.2068 0C10.0151 0 9.8253 0.0369556 9.64838 0.108726C9.47145 0.180496 9.31098 0.285659 9.1761 0.418139L0.429095 8.98775C0.154263 9.2567 0 9.62049 0 9.99968C0 10.3789 0.154263 10.7427 0.429095 11.0116L9.1761 19.5812C9.31088 19.7139 9.47144 19.8192 9.64838 19.8911C9.82531 19.963 10.0151 20 10.2068 20C10.3986 20 10.5884 19.963 10.7653 19.8911C10.9422 19.8192 11.1028 19.7139 11.2376 19.5812C11.5124 19.3123 11.6667 18.9485 11.6667 18.5693C11.6667 18.1901 11.5124 17.8263 11.2376 17.5574L3.52221 10.0011Z" fill="#C7F0F2"/>
</svg>
