<svg width="9" height="12" viewBox="0 0 9 12" fill="none" xmlns="http://www.w3.org/2000/svg">
<path d="M4.14999 11.8712L3.328 11.1327C1.20001 9.21568 3.26208e-06 7.49486 3.26208e-06 4.73267V4.21244C-0.00143233 3.09941 0.471019 2.03045 1.31549 1.23607C1.73047 0.844746 2.22591 0.533842 2.77274 0.321587C3.31957 0.109333 3.9068 0 4.5 0C5.0932 0 5.68043 0.109333 6.22726 0.321587C6.77409 0.533842 7.26953 0.844746 7.68451 1.23607C8.52912 2.03037 9.00159 3.09939 9 4.21244V4.73267C9 7.49486 7.79999 9.21522 5.67099 11.1308L4.84851 11.8694C4.75518 11.9531 4.63015 12 4.5 12C4.36985 12 4.24482 11.9531 4.15149 11.8694L4.14999 11.8712ZM1 4.21244V4.73267C1 7.24837 2.09451 8.73009 4.02701 10.4703C4.30451 10.7196 4.354 10.7648 4.5 10.8959L4.9725 10.4703C6.9055 8.73009 7.99951 7.24837 7.99951 4.73267V4.21244C8.00113 3.34205 7.6323 2.5059 6.9725 1.88415C6.6507 1.58002 6.26626 1.33836 5.84183 1.17336C5.41739 1.00836 4.96153 0.923361 4.50101 0.923361C4.04048 0.923361 3.58459 1.00836 3.16016 1.17336C2.73572 1.33836 2.35132 1.58002 2.02951 1.88415C1.36885 2.50555 0.999107 3.34173 1 4.21244ZM2.5 4.15474C2.5 3.78956 2.61731 3.43258 2.83707 3.12894C3.05683 2.82531 3.36917 2.58865 3.73462 2.4489C4.10007 2.30916 4.5022 2.2726 4.89017 2.34384C5.27813 2.41509 5.63451 2.59093 5.91421 2.84915C6.19392 3.10737 6.38441 3.43637 6.46158 3.79453C6.53875 4.15269 6.49912 4.52394 6.34775 4.86132C6.19637 5.19871 5.94004 5.48707 5.61114 5.68995C5.28225 5.89283 4.89556 6.00113 4.5 6.00113C3.97018 5.9993 3.46263 5.80419 3.08798 5.45832C2.71334 5.11245 2.50198 4.64387 2.5 4.15474ZM3.5 4.15474C3.5 4.33733 3.55864 4.51583 3.66852 4.66764C3.7784 4.81946 3.93458 4.93778 4.11731 5.00766C4.30004 5.07753 4.50112 5.09582 4.6951 5.0602C4.88908 5.02458 5.06724 4.93665 5.20709 4.80754C5.34694 4.67843 5.44219 4.51392 5.48077 4.33484C5.51936 4.15576 5.49958 3.97014 5.42389 3.80145C5.3482 3.63276 5.22002 3.48858 5.05557 3.38714C4.89112 3.2857 4.69778 3.23155 4.5 3.23155C4.3684 3.23063 4.23793 3.25387 4.11615 3.29994C3.99437 3.34601 3.88374 3.41398 3.79068 3.49989C3.69762 3.5858 3.624 3.68794 3.5741 3.80036C3.5242 3.91279 3.499 4.03325 3.5 4.15474Z" fill="#3FA8AE"/>
</svg>
