<svg width="46" height="46" viewBox="0 0 46 46" fill="none" xmlns="http://www.w3.org/2000/svg">
<circle cx="23" cy="23" r="21.5" fill="#EE6653" stroke="white" stroke-width="3"/>
<path d="M24.4807 22.9162L19.2887 28.1452C19.104 28.3314 19.0004 28.583 19.0004 28.8452C19.0004 29.1074 19.104 29.3591 19.2887 29.5452C19.3794 29.6369 19.4875 29.7096 19.6065 29.7593C19.7255 29.8089 19.8532 29.8345 19.9822 29.8345C20.1112 29.8345 20.2389 29.8089 20.3579 29.7593C20.4769 29.7096 20.585 29.6369 20.6757 29.5452L26.5607 23.6172C26.7456 23.4312 26.8494 23.1795 26.8494 22.9172C26.8494 22.6549 26.7456 22.4033 26.5607 22.2172L20.6757 16.2892C20.585 16.1976 20.4769 16.1248 20.3579 16.0752C20.2389 16.0255 20.1112 16 19.9822 16C19.8532 16 19.7255 16.0255 19.6065 16.0752C19.4875 16.1248 19.3794 16.1976 19.2887 16.2892C19.1038 16.4753 19 16.727 19 16.9893C19 17.2516 19.1038 17.5032 19.2887 17.6892L24.4807 22.9162Z" fill="white"/>
</svg>
