<svg width="9" height="14" viewBox="0 0 9 14" fill="none" xmlns="http://www.w3.org/2000/svg">
<path d="M5.70111 6.9992L0.300358 12.2906C0.107976 12.4789 -8.47235e-06 12.7335 -8.49555e-06 12.999C-8.51876e-06 13.2644 0.107976 13.519 0.300358 13.7073C0.394777 13.8 0.507105 13.8737 0.630951 13.9239C0.754797 13.9741 0.887686 14 1.02187 14C1.15606 14 1.28895 13.9741 1.41279 13.9239C1.53664 13.8737 1.64897 13.8 1.74339 13.7073L7.86629 7.70857C8.05867 7.52031 8.16666 7.26566 8.16666 7.00022C8.16666 6.73479 8.05867 6.48012 7.86629 6.29186L1.74339 0.293128C1.64904 0.200271 1.53665 0.126547 1.41279 0.0762304C1.28894 0.0259145 1.1561 -6.12882e-07 1.02187 -6.24617e-07C0.887648 -6.36351e-07 0.754808 0.0259145 0.630953 0.0762303C0.507097 0.126547 0.394707 0.200271 0.300359 0.293128C0.107977 0.481394 -7.4235e-06 0.736043 -7.4467e-06 1.00148C-7.46991e-06 1.26691 0.107977 1.52156 0.300359 1.70983L5.70111 6.9992Z" fill="#EE6653"/>
</svg>
