<svg width="19" height="16" viewBox="0 0 19 16" fill="none" xmlns="http://www.w3.org/2000/svg">
<path d="M18.2857 13.5937C18.2842 14.2332 18.0206 14.846 17.553 15.2973C17.0854 15.7485 16.4521 16.0013 15.7922 16L2.49351 16C2.16675 16.0007 1.84303 15.9391 1.54086 15.8185C1.2387 15.698 0.964002 15.5209 0.732447 15.2975C0.500893 15.074 0.31703 14.8085 0.191355 14.5162C0.0656806 14.2238 0.000654057 13.9104 -1.08523e-07 13.5937L-2.89381e-07 9.5834C-2.99017e-07 9.36974 0.0875811 9.16482 0.243455 9.01374C0.39933 8.86267 0.610729 8.7778 0.831168 8.7778C1.05161 8.7778 1.26301 8.86267 1.41888 9.01374C1.57476 9.16482 1.66234 9.36974 1.66234 9.5834L1.66234 13.5937C1.66234 13.8073 1.74992 14.0122 1.90579 14.1633C2.06167 14.3144 2.27307 14.3993 2.49351 14.3993L15.7922 14.3993C16.0126 14.3993 16.224 14.3144 16.3799 14.1633C16.5358 14.0122 16.6234 13.8073 16.6234 13.5937L16.6234 9.5834C16.6234 9.36974 16.711 9.16482 16.8668 9.01374C17.0227 8.86266 17.2341 8.7778 17.4545 8.7778C17.675 8.7778 17.8864 8.86266 18.0423 9.01374C18.1981 9.16482 18.2857 9.36974 18.2857 9.5834L18.2857 13.5937ZM13.0543 4.53631C12.8985 4.68734 12.6871 4.77218 12.4667 4.77218C12.2463 4.77218 12.0349 4.68734 11.8791 4.53631L9.97403 2.69795L9.97403 10.3858C9.97403 10.5994 9.88644 10.8043 9.73057 10.9554C9.5747 11.1065 9.3633 11.1914 9.14286 11.1914C8.92242 11.1914 8.71102 11.1065 8.55514 10.9554C8.39927 10.8043 8.31169 10.5994 8.31169 10.3858L8.31169 2.69795L6.40665 4.53712C6.32946 4.61203 6.2378 4.67146 6.1369 4.712C6.03599 4.75254 5.92782 4.77339 5.81859 4.77339C5.70936 4.77339 5.60121 4.75254 5.5003 4.712C5.3994 4.67146 5.30774 4.61203 5.23054 4.53712C5.15332 4.46277 5.09202 4.37435 5.0502 4.27694C5.00837 4.17954 4.98686 4.07508 4.98686 3.96958C4.98686 3.86408 5.00837 3.75962 5.0502 3.66222C5.09202 3.56482 5.15332 3.47639 5.23054 3.40204L8.54109 0.208629C8.57501 0.174121 8.612 0.142603 8.65163 0.114396L8.6666 0.103922L8.67159 0.103922L8.6824 0.0966698L8.68986 0.091827L8.69818 0.0870081L8.70815 0.0813538L8.71479 0.0813538L8.72643 0.0749117L8.73227 0.0749117L8.74472 0.0684706L8.75056 0.0684706L8.76301 0.0620295L8.76882 0.0620295L8.78046 0.0563751L8.78711 0.0563751L8.79791 0.0515562L8.80623 0.0515562L8.8162 0.047525L8.82617 0.0434929L8.83365 0.0434929L8.8453 0.0386492L8.85194 0.0386492L8.86607 0.0338312L8.87023 0.0338312L8.88603 0.0289875L8.90348 0.0241686L8.92177 0.0193258C8.95376 0.0110088 8.98624 0.00456295 9.01902 1.52524e-06L9.03812 1.52443e-06L9.05557 1.52369e-06L9.07138 1.52302e-06L9.09131 1.52218e-06C9.09131 1.52218e-06 9.09798 1.5219e-06 9.10131 1.52176e-06C9.10463 1.52162e-06 9.10796 1.52147e-06 9.11211 1.5213e-06C9.11627 1.52112e-06 9.12456 1.52077e-06 9.13121 1.52049e-06C9.13786 1.52021e-06 9.14534 1.51989e-06 9.15199 1.51961e-06L9.16031 1.51926e-06C9.16446 1.51908e-06 9.16863 1.5189e-06 9.17279 1.51873e-06C9.17694 1.51855e-06 9.18025 1.51841e-06 9.1844 1.51824e-06L9.21269 1.51704e-06L9.2293 1.51633e-06L9.24759 1.51556e-06L9.26669 1.51475e-06C9.29329 0.00429877 9.31935 0.00966033 9.34484 0.0161053L9.36313 0.020948L9.38058 0.0265785L9.39636 0.0314213L9.40135 0.0314213L9.41464 0.0362402L9.42129 0.0362402L9.4321 0.0402723L9.44125 0.0402723L9.45038 0.0402723L9.46203 0.0451151L9.46784 0.0451151L9.48115 0.0515562L9.49693 0.0588089C9.57391 0.0968729 9.6443 0.146321 9.70556 0.205409L13.0302 3.41332C13.1075 3.48767 13.1688 3.57608 13.2106 3.67348C13.2524 3.77088 13.2739 3.87536 13.2739 3.98087C13.2739 4.08637 13.2524 4.19082 13.2106 4.28823C13.1688 4.38563 13.1075 4.47406 13.0302 4.54841L13.0543 4.53631Z" fill="#EE6653"/>
</svg>
