<svg width="10" height="8" viewBox="0 0 10 8" fill="none" xmlns="http://www.w3.org/2000/svg">
<g clip-path="url(#clip0_455_2015)">
<path d="M2.39014 1.4399C3.03014 0.799902 3.92014 0.399902 4.90014 0.399902C6.86014 0.399902 8.45014 1.9899 8.45014 3.9499C8.45014 4.7099 8.21014 5.4099 7.81014 5.9799C7.81014 5.9799 8.58014 5.1299 9.33014 5.1499" stroke="#EE6653" stroke-width="0.8" stroke-linecap="round" stroke-linejoin="round"/>
<path d="M7.1901 6.67992C6.5701 7.19992 5.7701 7.50992 4.9001 7.50992C2.9401 7.50992 1.3501 5.91992 1.3501 3.95992C1.3501 3.30992 1.5201 2.69992 1.8301 2.16992C1.8301 2.16992 1.8201 3.25992 2.3901 3.79992" stroke="#EE6653" stroke-width="0.8" stroke-linecap="round" stroke-linejoin="round"/>
<path d="M0.399902 3.07991C0.399902 3.07991 1.3599 2.72991 1.8299 2.15991" stroke="#EE6653" stroke-width="0.8" stroke-linecap="round" stroke-linejoin="round"/>
<path d="M7.45996 4.33008C7.45996 4.33008 7.88996 5.25008 7.81996 5.99008" stroke="#EE6653" stroke-width="0.8" stroke-linecap="round" stroke-linejoin="round"/>
</g>
<defs>
<clipPath id="clip0_455_2015">
<rect width="9.74" height="7.91" fill="white"/>
</clipPath>
</defs>
</svg>
