<svg width="12" height="12" viewBox="0 0 12 12" fill="none" xmlns="http://www.w3.org/2000/svg">
<path d="M3.87637 5.52751V10.9088H9.57932C9.71181 10.9102 9.84034 10.8639 9.94114 10.7783C10.0419 10.6927 10.1082 10.5738 10.1277 10.4434L10.891 5.53898C10.9031 5.46064 10.8978 5.3806 10.8754 5.30452C10.8531 5.22845 10.8142 5.15818 10.7616 5.09867C10.7067 5.03742 10.639 4.98892 10.5632 4.95658C10.4874 4.92424 10.4053 4.90885 10.3229 4.91152H6.64339V2.18352C6.64248 1.95205 6.56761 1.72687 6.42961 1.54053C6.29161 1.35418 6.09762 1.21632 5.87569 1.14688L3.97398 5.35128C3.94697 5.41289 3.91429 5.47188 3.87637 5.52751ZM2.76758 10.9088V6.00164H1.66043C1.588 6.00099 1.51617 6.01463 1.44907 6.04175C1.38197 6.06888 1.32094 6.10896 1.26949 6.15969C1.21805 6.21042 1.17722 6.2708 1.14935 6.33732C1.12149 6.40383 1.10713 6.47518 1.10713 6.54725V10.3665C1.10713 10.4385 1.12149 10.5099 1.14935 10.5764C1.17722 10.6429 1.21805 10.7033 1.26949 10.754C1.32094 10.8047 1.38197 10.8448 1.44907 10.8719C1.51617 10.8991 1.588 10.9127 1.66043 10.9121L2.76758 10.9088ZM1.66043 12C1.44337 12.0011 1.22822 11.9596 1.02727 11.8779C0.826333 11.7962 0.643539 11.6759 0.489338 11.5239C0.335137 11.3719 0.212553 11.1911 0.128589 10.992C0.0446249 10.7928 0.000933865 10.5791 0 10.3632V6.54396C0.000933865 6.32799 0.0446249 6.11432 0.128589 5.91516C0.212553 5.716 0.335137 5.53525 0.489338 5.38325C0.643539 5.23124 0.826333 5.11095 1.02727 5.02926C1.22822 4.94757 1.44337 4.90608 1.66043 4.90716H2.96115L5.02902 0.324111C5.07296 0.227377 5.14406 0.145335 5.23375 0.0878417C5.32344 0.0303483 5.42791 -0.000146105 5.53461 2.72632e-05C5.82402 -0.00140899 6.11087 0.0539158 6.37879 0.162835C6.6467 0.271755 6.89041 0.432131 7.096 0.634808C7.30159 0.837485 7.46502 1.07848 7.57695 1.34403C7.68889 1.60958 7.74713 1.89448 7.74835 2.18243V3.81924H10.3213C10.5614 3.81628 10.7993 3.86496 11.0188 3.96195C11.2383 4.05894 11.4341 4.20195 11.5929 4.38121C11.7506 4.55959 11.8671 4.77021 11.9342 4.99824C12.0013 5.22627 12.0173 5.46617 11.9811 5.70102L11.2178 10.6071C11.1562 10.9979 10.9551 11.3536 10.6513 11.609C10.3476 11.8644 9.96162 12.0025 9.56398 11.9978H1.66317L1.66043 12Z" fill="#3FA8AE"/>
</svg>
