<svg width="80" height="80" viewBox="0 0 80 80" fill="none" xmlns="http://www.w3.org/2000/svg">
<path d="M70.85 37.6399C70.85 39.7399 69.14 41.4399 67.05 41.4399H64.76C63.29 41.4399 61.97 42.3599 61.47 43.7399L60.36 46.7799L59.25 43.7399C58.75 42.3599 57.43 41.4399 55.96 41.4399C55.24 41.4399 35.72 41.4399 34.95 41.4399C32.85 41.4399 31.15 39.7299 31.15 37.6399C31.15 36.7899 31.15 18.9299 31.15 17.4499C31.15 15.3499 32.86 13.6499 34.95 13.6499H67.04C69.14 13.6499 70.84 15.3599 70.84 17.4499V30.2699V30.8599V37.6399H70.85Z" fill="#EE6653"/>
<path d="M31.67 43.66C31.67 43.17 31.27 42.77 30.78 42.77C30.29 42.77 29.89 43.17 29.89 43.66V45.74H24.79C24.3 45.74 23.9 46.14 23.9 46.63C23.9 47.12 24.3 47.52 24.79 47.52H26.93C27.33 49.19 28.19 50.88 29.46 52.27C28.31 53.13 26.78 53.86 24.77 54.27C24.29 54.37 23.98 54.84 24.08 55.32C24.18 55.8 24.65 56.11 25.13 56.01C27.61 55.51 29.44 54.56 30.79 53.5C32.14 54.56 33.97 55.51 36.45 56.01C36.93 56.11 37.4 55.8 37.5 55.32C37.6 54.84 37.29 54.37 36.81 54.27C34.79 53.86 33.27 53.13 32.11 52.28C33.38 50.89 34.25 49.2 34.64 47.52H36.78C37.27 47.52 37.67 47.12 37.67 46.63C37.67 46.14 37.27 45.74 36.78 45.74H31.68V43.66H31.67ZM32.79 47.52C32.53 48.41 31.96 49.78 30.77 51.09C29.58 49.79 29.02 48.41 28.76 47.52H32.79Z" fill="#434343"/>
<path d="M48.95 19.1498C48.82 18.8098 48.49 18.5798 48.12 18.5798C47.75 18.5798 47.42 18.8098 47.29 19.1498L42.94 30.6298C42.77 31.0898 43 31.5998 43.46 31.7698C43.92 31.9398 44.43 31.7098 44.6 31.2498L45.46 28.9798C45.49 28.9798 45.52 28.9798 45.55 28.9798H50.74C50.76 28.9798 50.77 28.9798 50.79 28.9798L51.65 31.2498C51.82 31.7098 52.34 31.9398 52.79 31.7698C53.25 31.5998 53.48 31.0798 53.31 30.6298L48.95 19.1498ZM46.13 27.2198L48.12 21.9698L50.11 27.2198H46.13Z" fill="#434343"/>
<path d="M64.17 9.69995H32.07C28.99 9.69995 26.49 12.2 26.49 15.28V33.49H14.73C11.65 33.49 9.15002 35.99 9.15002 39.07V59.2599C9.15002 62.3399 11.65 64.8399 14.73 64.8399H17.02C17.74 64.8399 18.39 65.3 18.64 65.97L19.81 69.18C20.06 69.86 20.69 70.3 21.42 70.3C22.15 70.3 22.78 69.86 23.03 69.18L24.2 65.97C24.45 65.29 25.1 64.8399 25.82 64.8399H38.69H39.28H46.83C49.91 64.8399 52.41 62.3399 52.41 59.2599V41.0499H53.09C53.81 41.0499 54.46 41.51 54.71 42.18L55.88 45.3899C56.13 46.0699 56.76 46.5099 57.49 46.5099C58.22 46.5099 58.85 46.0699 59.1 45.3899L60.27 42.18C60.52 41.5 61.17 41.0499 61.89 41.0499H64.18C67.26 41.0499 69.76 38.55 69.76 35.47V28.7V28.11V15.28C69.75 12.2 67.24 9.69995 64.17 9.69995ZM50.63 59.25C50.63 61.35 48.92 63.0499 46.83 63.0499H39.28H38.69H25.81C24.34 63.0499 23.02 63.9699 22.52 65.3499L21.41 68.3899L20.3 65.3499C19.8 63.9699 18.48 63.0499 17.01 63.0499H14.72C12.62 63.0499 10.92 61.34 10.92 59.25V39.07C10.92 36.97 12.63 35.27 14.72 35.27H26.48V35.47C26.48 38.55 28.98 41.0499 32.06 41.0499H50.62V59.25H50.63ZM67.97 35.47C67.97 37.57 66.26 39.27 64.17 39.27H61.88C60.41 39.27 59.09 40.19 58.59 41.57L57.48 44.61L56.37 41.57C55.87 40.19 54.55 39.27 53.08 39.27C52.36 39.27 32.84 39.27 32.07 39.27C29.97 39.27 28.27 37.56 28.27 35.47C28.27 34.62 28.27 16.76 28.27 15.28C28.27 13.18 29.98 11.48 32.07 11.48H64.16C66.26 11.48 67.96 13.19 67.96 15.28V28.1V28.69V35.47H67.97Z" fill="#434343"/>
</svg>
