<svg width="20" height="22" viewBox="0 0 20 22" fill="none" xmlns="http://www.w3.org/2000/svg">
<path d="M5 22C4.20435 22 3.44127 21.6839 2.87866 21.1213C2.31605 20.5587 2 19.7956 2 19V6H1C0.734784 6 0.480383 5.89463 0.292847 5.70709C0.10531 5.51956 0 5.26522 0 5C0 4.73478 0.10531 4.48044 0.292847 4.29291C0.480383 4.10537 0.734784 4 1 4H5V3C5 2.20435 5.31605 1.4413 5.87866 0.878693C6.44127 0.316083 7.20435 0 8 0H12C12.7956 0 13.5587 0.316083 14.1213 0.878693C14.6839 1.4413 15 2.20435 15 3V4H19C19.2652 4 19.5196 4.10537 19.7072 4.29291C19.8947 4.48044 20 4.73478 20 5C20 5.26522 19.8947 5.51956 19.7072 5.70709C19.5196 5.89463 19.2652 6 19 6H18V19C18 19.7956 17.6839 20.5587 17.1213 21.1213C16.5587 21.6839 15.7956 22 15 22H5ZM4 19C4 19.2652 4.10531 19.5196 4.29285 19.7071C4.48038 19.8946 4.73478 20 5 20H15C15.2652 20 15.5196 19.8946 15.7072 19.7071C15.8947 19.5196 16 19.2652 16 19V6H4V19ZM13 4V3C13 2.73478 12.8947 2.48044 12.7072 2.29291C12.5196 2.10537 12.2652 2 12 2H8C7.73478 2 7.48038 2.10537 7.29285 2.29291C7.10531 2.48044 7 2.73478 7 3V4H13ZM11 16V10C11 9.73478 11.1053 9.48044 11.2928 9.29291C11.4804 9.10537 11.7348 9 12 9C12.2652 9 12.5196 9.10537 12.7072 9.29291C12.8947 9.48044 13 9.73478 13 10V16C13 16.2652 12.8947 16.5196 12.7072 16.7071C12.5196 16.8946 12.2652 17 12 17C11.7348 17 11.4804 16.8946 11.2928 16.7071C11.1053 16.5196 11 16.2652 11 16ZM7 16V10C7 9.73478 7.10531 9.48044 7.29285 9.29291C7.48038 9.10537 7.73478 9 8 9C8.26522 9 8.51962 9.10537 8.70715 9.29291C8.89469 9.48044 9 9.73478 9 10V16C9 16.2652 8.89469 16.5196 8.70715 16.7071C8.51962 16.8946 8.26522 17 8 17C7.73478 17 7.48038 16.8946 7.29285 16.7071C7.10531 16.5196 7 16.2652 7 16Z" fill="#EE6653"/>
</svg>
