<svg width="62" height="61" viewBox="0 0 62 61" fill="none" xmlns="http://www.w3.org/2000/svg">
<path d="M44.8868 0H16.5162C7.5627 0 0.304443 7.19465 0.304443 16.0697V44.1917C0.304443 53.0668 7.5627 60.2614 16.5162 60.2614H44.8868C53.8404 60.2614 61.0986 53.0668 61.0986 44.1917V16.0697C61.0986 7.19465 53.8404 0 44.8868 0Z" fill="#EE6653"/>
<path d="M42.7514 36.0801C42.7495 36.8774 42.4282 37.6414 41.8582 38.204C41.2882 38.7665 40.5161 39.0817 39.7117 39.0801L23.4999 39.0801C22.6955 39.0817 21.9234 38.7665 21.3534 38.204C20.7834 37.6414 20.4621 36.8774 20.4602 36.0801L20.4602 31.0804C20.4602 30.814 20.567 30.5585 20.757 30.3702C20.947 30.1818 21.2047 30.076 21.4734 30.076C21.7422 30.076 21.9999 30.1818 22.1899 30.3702C22.3799 30.5585 22.4867 30.814 22.4867 31.0804L22.4867 36.0801C22.4867 36.3464 22.5934 36.6019 22.7835 36.7902C22.9735 36.9786 23.2312 37.0844 23.4999 37.0844L39.7117 37.0844C39.9804 37.0844 40.2381 36.9786 40.4281 36.7902C40.6182 36.6019 40.7249 36.3464 40.7249 36.0801L40.7249 31.0804C40.7249 30.814 40.8317 30.5585 41.0217 30.3702C41.2117 30.1818 41.4694 30.076 41.7382 30.076C42.0069 30.076 42.2646 30.1818 42.4546 30.3702C42.6446 30.5585 42.7514 30.814 42.7514 31.0804L42.7514 36.0801ZM36.3751 24.7881C36.281 24.8814 36.1693 24.9555 36.0463 25.0061C35.9233 25.0566 35.7914 25.0826 35.6583 25.0826C35.5251 25.0826 35.3933 25.0566 35.2703 25.0061C35.1472 24.9555 35.0355 24.8814 34.9414 24.7881L32.619 22.4961L32.619 32.0807C32.619 32.3471 32.5123 32.6025 32.3223 32.7909C32.1322 32.9792 31.8745 33.0851 31.6058 33.0851C31.3371 33.0851 31.0794 32.9792 30.8894 32.7909C30.6993 32.6025 30.5926 32.3471 30.5926 32.0807L30.5926 22.4961L28.2702 24.7881C28.1786 24.8901 28.0669 24.9726 27.942 25.0304C27.8171 25.0881 27.6817 25.1201 27.5439 25.1242C27.4061 25.1283 27.269 25.1045 27.1408 25.0543C27.0126 25.004 26.8961 24.9284 26.7984 24.832C26.7008 24.7356 26.624 24.6204 26.5728 24.4936C26.5215 24.3668 26.497 24.2309 26.5005 24.0943C26.5041 23.9577 26.5357 23.8233 26.5935 23.6993C26.6513 23.5753 26.734 23.4642 26.8365 23.3729L30.8753 19.3886C30.9216 19.3413 30.9725 19.2986 31.0273 19.2611L31.0424 19.251L31.0495 19.251L31.0617 19.243L31.0719 19.237L31.0819 19.231L31.0931 19.2239L31.1022 19.2189L31.1154 19.2119L31.1245 19.2119L31.1377 19.2049L31.1468 19.2049L31.16 19.1988L31.1691 19.1988L31.1813 19.1928L31.1914 19.1928L31.2025 19.1928L31.2147 19.1928L31.2249 19.1928L31.238 19.1878L31.2471 19.1878L31.2613 19.1828L31.2694 19.1828L31.2856 19.1777L31.2927 19.1777L31.3099 19.1727L31.316 19.1727L31.3343 19.1727L31.3403 19.1727L31.3586 19.1727L31.3636 19.1727L31.3819 19.1727L31.3869 19.1727L31.4052 19.1727L31.4112 19.1727L31.4295 19.1727L31.4366 19.1727L31.4538 19.1727L31.4619 19.1727L31.4771 19.1727L31.5511 19.1727C31.5585 19.1727 31.5656 19.1727 31.5723 19.1727C31.5805 19.1727 31.5896 19.1727 31.5977 19.1727C31.5977 19.1727 31.5977 19.1727 31.6048 19.1727C31.6119 19.1727 31.617 19.1727 31.6231 19.1727C31.6291 19.1727 31.6362 19.1727 31.6423 19.1727L31.6474 19.1727C31.6555 19.1727 31.6626 19.1727 31.6707 19.1727C31.9223 19.1903 32.1581 19.3002 32.3323 19.481L36.368 23.4623C36.4619 23.5551 36.5364 23.6654 36.5873 23.7869C36.6381 23.9083 36.6643 24.0384 36.6643 24.1699C36.6643 24.3013 36.6381 24.4315 36.5873 24.5529C36.5364 24.6743 36.4619 24.7846 36.368 24.8775L36.3751 24.7881Z" fill="white"/>
</svg>
